%TF.GenerationSoftware,KiCad,Pcbnew,(6.0.2)*%
%TF.CreationDate,2022-03-13T14:10:45-04:00*%
%TF.ProjectId,nixie_daughter,6e697869-655f-4646-9175-67687465722e,rev?*%
%TF.SameCoordinates,Original*%
%TF.FileFunction,Copper,L2,Bot*%
%TF.FilePolarity,Positive*%
%FSLAX46Y46*%
G04 Gerber Fmt 4.6, Leading zero omitted, Abs format (unit mm)*
G04 Created by KiCad (PCBNEW (6.0.2)) date 2022-03-13 14:10:45*
%MOMM*%
%LPD*%
G01*
G04 APERTURE LIST*
%TA.AperFunction,ComponentPad*%
%ADD10C,3.000000*%
%TD*%
%TA.AperFunction,ComponentPad*%
%ADD11R,1.000000X1.000000*%
%TD*%
%TA.AperFunction,ComponentPad*%
%ADD12O,1.000000X1.000000*%
%TD*%
%TA.AperFunction,ViaPad*%
%ADD13C,0.800000*%
%TD*%
%TA.AperFunction,Conductor*%
%ADD14C,0.250000*%
%TD*%
G04 APERTURE END LIST*
D10*
%TO.P,IN-12,1,Pin_1*%
%TO.N,Net-(IN-12B1-Pad1)*%
X127000000Y-122000000D03*
%TO.P,IN-12,2,Pin_2*%
%TO.N,Net-(IN-12B1-Pad2)*%
X128750000Y-118500000D03*
%TO.P,IN-12,3,Pin_3*%
%TO.N,Net-(IN-12B1-Pad3)*%
X128750000Y-114000000D03*
%TO.P,IN-12,4,Pin_4*%
%TO.N,Net-(IN-12B1-Pad4)*%
X128750000Y-109500000D03*
%TO.P,IN-12,5,Pin_5*%
%TO.N,Net-(IN-12B1-Pad5)*%
X127000000Y-106000000D03*
%TO.P,IN-12,6,Pin_6*%
%TO.N,Net-(IN-12B1-Pad6)*%
X123000000Y-105000000D03*
%TO.P,IN-12,7,Pin_7*%
%TO.N,Net-(IN-12B1-Pad7)*%
X119000000Y-106000000D03*
%TO.P,IN-12,8,Pin_8*%
%TO.N,Net-(IN-12B1-Pad8)*%
X117250000Y-109500000D03*
%TO.P,IN-12,9,Pin_9*%
%TO.N,Net-(IN-12B1-Pad9)*%
X117250000Y-114000000D03*
%TO.P,IN-12,10,Pin_10*%
%TO.N,Net-(IN-12B1-Pad10)*%
X117250000Y-118500000D03*
%TO.P,IN-12,11,Pin_11*%
%TO.N,Net-(IN-12B1-Pad11)*%
X119000000Y-122000000D03*
%TO.P,IN-12,12,Pin_12*%
%TO.N,Net-(IN-12B1-Pad12)*%
X123000000Y-123000000D03*
%TD*%
D11*
%TO.P,J1,1,Pin_1*%
%TO.N,Net-(IN-12B1-Pad1)*%
X116650000Y-95000000D03*
D12*
%TO.P,J1,2,Pin_2*%
%TO.N,Net-(IN-12B1-Pad2)*%
X117920000Y-95000000D03*
%TO.P,J1,3,Pin_3*%
%TO.N,Net-(IN-12B1-Pad3)*%
X119190000Y-95000000D03*
%TO.P,J1,4,Pin_4*%
%TO.N,Net-(IN-12B1-Pad4)*%
X120460000Y-95000000D03*
%TO.P,J1,5,Pin_5*%
%TO.N,Net-(IN-12B1-Pad5)*%
X121730000Y-95000000D03*
%TO.P,J1,6,Pin_6*%
%TO.N,Net-(IN-12B1-Pad6)*%
X123000000Y-95000000D03*
%TO.P,J1,7,Pin_7*%
%TO.N,Net-(IN-12B1-Pad7)*%
X124270000Y-95000000D03*
%TO.P,J1,8,Pin_8*%
%TO.N,Net-(IN-12B1-Pad8)*%
X125540000Y-95000000D03*
%TO.P,J1,9,Pin_9*%
%TO.N,Net-(IN-12B1-Pad9)*%
X126810000Y-95000000D03*
%TO.P,J1,10,Pin_10*%
%TO.N,Net-(IN-12B1-Pad10)*%
X128080000Y-95000000D03*
%TO.P,J1,11,Pin_11*%
%TO.N,Net-(IN-12B1-Pad11)*%
X129350000Y-95000000D03*
%TO.P,J1,12,Pin_12*%
%TO.N,Net-(IN-12B1-Pad12)*%
X130620000Y-95000000D03*
%TD*%
D13*
%TO.N,Net-(IN-12B1-Pad1)*%
X116332000Y-98552000D03*
%TO.N,Net-(IN-12B1-Pad2)*%
X117856000Y-98552000D03*
%TO.N,Net-(IN-12B1-Pad3)*%
X117856000Y-99822000D03*
%TO.N,Net-(IN-12B1-Pad1)*%
X115840500Y-100076000D03*
%TD*%
D14*
%TO.N,Net-(IN-12B1-Pad8)*%
X115062000Y-107312000D02*
X117250000Y-109500000D01*
X124968000Y-96520000D02*
X116586000Y-96520000D01*
X115062000Y-98044000D02*
X115062000Y-107312000D01*
X125540000Y-95948000D02*
X124968000Y-96520000D01*
X116586000Y-96520000D02*
X115062000Y-98044000D01*
X125540000Y-95000000D02*
X125540000Y-95948000D01*
%TO.N,Net-(IN-12B1-Pad3)*%
X131826000Y-110924000D02*
X128750000Y-114000000D01*
X125476000Y-99822000D02*
X131826000Y-106172000D01*
X117856000Y-99822000D02*
X125476000Y-99822000D01*
X131826000Y-106172000D02*
X131826000Y-110924000D01*
%TO.N,Net-(IN-12B1-Pad2)*%
X132842000Y-114408000D02*
X128750000Y-118500000D01*
X132842000Y-105664000D02*
X132842000Y-114408000D01*
X125730000Y-98552000D02*
X132842000Y-105664000D01*
X117856000Y-98552000D02*
X125730000Y-98552000D01*
%TO.N,Net-(IN-12B1-Pad1)*%
X133604000Y-105156000D02*
X125984000Y-97536000D01*
X117348000Y-97536000D02*
X116332000Y-98552000D01*
X133604000Y-118618000D02*
X133604000Y-105156000D01*
X130222000Y-122000000D02*
X133604000Y-118618000D01*
X125984000Y-97536000D02*
X117348000Y-97536000D01*
X127000000Y-122000000D02*
X130222000Y-122000000D01*
%TO.N,Net-(IN-12B1-Pad3)*%
X117856000Y-99822000D02*
X117856000Y-99568000D01*
%TO.N,Net-(IN-12B1-Pad11)*%
X119000000Y-125604000D02*
X119000000Y-122000000D01*
X119888000Y-126492000D02*
X119000000Y-125604000D01*
X130556000Y-126492000D02*
X119888000Y-126492000D01*
X135128000Y-97282000D02*
X135128000Y-121920000D01*
X131318000Y-93472000D02*
X135128000Y-97282000D01*
X135128000Y-121920000D02*
X130556000Y-126492000D01*
X129794000Y-93472000D02*
X131318000Y-93472000D01*
X129350000Y-93916000D02*
X129794000Y-93472000D01*
X129350000Y-95000000D02*
X129350000Y-93916000D01*
%TO.N,Net-(IN-12B1-Pad12)*%
X134366000Y-119888000D02*
X134366000Y-98746000D01*
X134366000Y-98746000D02*
X130620000Y-95000000D01*
X125222000Y-125222000D02*
X129032000Y-125222000D01*
X129032000Y-125222000D02*
X134366000Y-119888000D01*
X123000000Y-123000000D02*
X125222000Y-125222000D01*
%TO.N,Net-(IN-12B1-Pad10)*%
X114808000Y-92964000D02*
X113284000Y-94488000D01*
X113284000Y-114534000D02*
X117250000Y-118500000D01*
X126044000Y-92964000D02*
X114808000Y-92964000D01*
X113284000Y-94488000D02*
X113284000Y-114534000D01*
X128080000Y-95000000D02*
X126044000Y-92964000D01*
%TO.N,Net-(IN-12B1-Pad9)*%
X125536000Y-93726000D02*
X126810000Y-95000000D01*
X115062000Y-93726000D02*
X125536000Y-93726000D01*
X114046000Y-110796000D02*
X114046000Y-94742000D01*
X114046000Y-94742000D02*
X115062000Y-93726000D01*
X117250000Y-114000000D02*
X114046000Y-110796000D01*
%TD*%
M02*
