%TF.GenerationSoftware,KiCad,Pcbnew,(6.0.2)*%
%TF.CreationDate,2022-03-13T14:10:45-04:00*%
%TF.ProjectId,nixie_daughter,6e697869-655f-4646-9175-67687465722e,rev?*%
%TF.SameCoordinates,Original*%
%TF.FileFunction,Copper,L1,Top*%
%TF.FilePolarity,Positive*%
%FSLAX46Y46*%
G04 Gerber Fmt 4.6, Leading zero omitted, Abs format (unit mm)*
G04 Created by KiCad (PCBNEW (6.0.2)) date 2022-03-13 14:10:45*
%MOMM*%
%LPD*%
G01*
G04 APERTURE LIST*
%TA.AperFunction,ComponentPad*%
%ADD10C,3.000000*%
%TD*%
%TA.AperFunction,ComponentPad*%
%ADD11R,1.000000X1.000000*%
%TD*%
%TA.AperFunction,ComponentPad*%
%ADD12O,1.000000X1.000000*%
%TD*%
%TA.AperFunction,ViaPad*%
%ADD13C,0.800000*%
%TD*%
%TA.AperFunction,Conductor*%
%ADD14C,0.250000*%
%TD*%
%TA.AperFunction,Conductor*%
%ADD15C,0.508000*%
%TD*%
G04 APERTURE END LIST*
D10*
%TO.P,IN-12,1,Pin_1*%
%TO.N,Net-(IN-12B1-Pad1)*%
X127000000Y-122000000D03*
%TO.P,IN-12,2,Pin_2*%
%TO.N,Net-(IN-12B1-Pad2)*%
X128750000Y-118500000D03*
%TO.P,IN-12,3,Pin_3*%
%TO.N,Net-(IN-12B1-Pad3)*%
X128750000Y-114000000D03*
%TO.P,IN-12,4,Pin_4*%
%TO.N,Net-(IN-12B1-Pad4)*%
X128750000Y-109500000D03*
%TO.P,IN-12,5,Pin_5*%
%TO.N,Net-(IN-12B1-Pad5)*%
X127000000Y-106000000D03*
%TO.P,IN-12,6,Pin_6*%
%TO.N,Net-(IN-12B1-Pad6)*%
X123000000Y-105000000D03*
%TO.P,IN-12,7,Pin_7*%
%TO.N,Net-(IN-12B1-Pad7)*%
X119000000Y-106000000D03*
%TO.P,IN-12,8,Pin_8*%
%TO.N,Net-(IN-12B1-Pad8)*%
X117250000Y-109500000D03*
%TO.P,IN-12,9,Pin_9*%
%TO.N,Net-(IN-12B1-Pad9)*%
X117250000Y-114000000D03*
%TO.P,IN-12,10,Pin_10*%
%TO.N,Net-(IN-12B1-Pad10)*%
X117250000Y-118500000D03*
%TO.P,IN-12,11,Pin_11*%
%TO.N,Net-(IN-12B1-Pad11)*%
X119000000Y-122000000D03*
%TO.P,IN-12,12,Pin_12*%
%TO.N,Net-(IN-12B1-Pad12)*%
X123000000Y-123000000D03*
%TD*%
D11*
%TO.P,J1,1,Pin_1*%
%TO.N,Net-(IN-12B1-Pad1)*%
X116650000Y-95000000D03*
D12*
%TO.P,J1,2,Pin_2*%
%TO.N,Net-(IN-12B1-Pad2)*%
X117920000Y-95000000D03*
%TO.P,J1,3,Pin_3*%
%TO.N,Net-(IN-12B1-Pad3)*%
X119190000Y-95000000D03*
%TO.P,J1,4,Pin_4*%
%TO.N,Net-(IN-12B1-Pad4)*%
X120460000Y-95000000D03*
%TO.P,J1,5,Pin_5*%
%TO.N,Net-(IN-12B1-Pad5)*%
X121730000Y-95000000D03*
%TO.P,J1,6,Pin_6*%
%TO.N,Net-(IN-12B1-Pad6)*%
X123000000Y-95000000D03*
%TO.P,J1,7,Pin_7*%
%TO.N,Net-(IN-12B1-Pad7)*%
X124270000Y-95000000D03*
%TO.P,J1,8,Pin_8*%
%TO.N,Net-(IN-12B1-Pad8)*%
X125540000Y-95000000D03*
%TO.P,J1,9,Pin_9*%
%TO.N,Net-(IN-12B1-Pad9)*%
X126810000Y-95000000D03*
%TO.P,J1,10,Pin_10*%
%TO.N,Net-(IN-12B1-Pad10)*%
X128080000Y-95000000D03*
%TO.P,J1,11,Pin_11*%
%TO.N,Net-(IN-12B1-Pad11)*%
X129350000Y-95000000D03*
%TO.P,J1,12,Pin_12*%
%TO.N,Net-(IN-12B1-Pad12)*%
X130620000Y-95000000D03*
%TD*%
D13*
%TO.N,Net-(IN-12B1-Pad1)*%
X116332000Y-98552000D03*
%TO.N,Net-(IN-12B1-Pad2)*%
X117856000Y-98552000D03*
%TO.N,Net-(IN-12B1-Pad3)*%
X117856000Y-99822000D03*
%TO.N,Net-(IN-12B1-Pad1)*%
X115840500Y-100076000D03*
%TD*%
D14*
%TO.N,Net-(IN-12B1-Pad1)*%
X116650000Y-98234000D02*
X116332000Y-98552000D01*
X116650000Y-95000000D02*
X116650000Y-98234000D01*
%TO.N,Net-(IN-12B1-Pad2)*%
X117856000Y-95124000D02*
X117856000Y-98552000D01*
X117920000Y-95000000D02*
X117920000Y-95060000D01*
X117920000Y-95060000D02*
X117856000Y-95124000D01*
%TO.N,Net-(IN-12B1-Pad3)*%
X119190000Y-98488000D02*
X117856000Y-99822000D01*
X119190000Y-96330000D02*
X119190000Y-98488000D01*
X119190000Y-96330000D02*
X119190000Y-97218000D01*
X119190000Y-95000000D02*
X119190000Y-96330000D01*
%TO.N,Net-(IN-12B1-Pad4)*%
X120460000Y-98996000D02*
X120460000Y-95000000D01*
X114554000Y-104902000D02*
X120460000Y-98996000D01*
X127000000Y-127254000D02*
X120396000Y-127254000D01*
X131826000Y-122428000D02*
X127000000Y-127254000D01*
X131826000Y-110490000D02*
X131826000Y-122428000D01*
X120396000Y-127254000D02*
X114554000Y-121412000D01*
X130836000Y-109500000D02*
X131826000Y-110490000D01*
X114554000Y-121412000D02*
X114554000Y-104902000D01*
X128750000Y-109500000D02*
X130836000Y-109500000D01*
%TO.N,Net-(IN-12B1-Pad1)*%
X114554000Y-98789500D02*
X115840500Y-100076000D01*
X114554000Y-98298000D02*
X114554000Y-98789500D01*
X115316000Y-96266000D02*
X114554000Y-97028000D01*
X114554000Y-97028000D02*
X114554000Y-98298000D01*
X116582000Y-95000000D02*
X115316000Y-96266000D01*
X116650000Y-95000000D02*
X116582000Y-95000000D01*
%TO.N,Net-(IN-12B1-Pad5)*%
X127000000Y-102362000D02*
X127000000Y-106000000D01*
X133096000Y-96266000D02*
X127000000Y-102362000D01*
X133096000Y-93980000D02*
X133096000Y-96266000D01*
X131826000Y-92710000D02*
X133096000Y-93980000D01*
X123444000Y-92710000D02*
X131826000Y-92710000D01*
X121730000Y-94424000D02*
X123444000Y-92710000D01*
X121730000Y-95000000D02*
X121730000Y-94424000D01*
%TO.N,Net-(IN-12B1-Pad6)*%
X123000000Y-102806000D02*
X123000000Y-105000000D01*
X128778000Y-97028000D02*
X123000000Y-102806000D01*
X131064000Y-97028000D02*
X128778000Y-97028000D01*
X132334000Y-95758000D02*
X131064000Y-97028000D01*
X132334000Y-94234000D02*
X132334000Y-95758000D01*
X131572000Y-93472000D02*
X132334000Y-94234000D01*
X123698000Y-93472000D02*
X131572000Y-93472000D01*
X123000000Y-94170000D02*
X123698000Y-93472000D01*
X123000000Y-95000000D02*
X123000000Y-94170000D01*
%TO.N,Net-(IN-12B1-Pad7)*%
X119000000Y-101726000D02*
X119000000Y-106000000D01*
X124270000Y-96456000D02*
X119000000Y-101726000D01*
X124270000Y-95000000D02*
X124270000Y-96456000D01*
D15*
X119000000Y-106000000D02*
X119830000Y-105170000D01*
%TD*%
M02*
