M48
; DRILL file {KiCad (6.0.2)} date Sun Mar 13 14:10:47 2022
; FORMAT={-:-/ absolute / inch / decimal}
; #@! TF.CreationDate,2022-03-13T14:10:47-04:00
; #@! TF.GenerationSoftware,Kicad,Pcbnew,(6.0.2)
; #@! TF.FileFunction,Plated,1,2,PTH
FMAT,2
INCH
; #@! TA.AperFunction,Plated,PTH,ViaDrill
T1C0.0157
; #@! TA.AperFunction,Plated,PTH,ComponentDrill
T2C0.0256
; #@! TA.AperFunction,Plated,PTH,ComponentDrill
T3C0.0787
%
G90
G05
T1
X4.5606Y-3.94
X4.58Y-3.88
X4.64Y-3.88
X4.64Y-3.93
T2
X4.5925Y-3.7402
X4.6425Y-3.7402
X4.6925Y-3.7402
X4.7425Y-3.7402
X4.7925Y-3.7402
X4.8425Y-3.7402
X4.8925Y-3.7402
X4.9425Y-3.7402
X4.9925Y-3.7402
X5.0425Y-3.7402
X5.0925Y-3.7402
X5.1425Y-3.7402
T3
X4.6161Y-4.311
X4.6161Y-4.4882
X4.6161Y-4.6654
X4.685Y-4.1732
X4.685Y-4.8031
X4.8425Y-4.1339
X4.8425Y-4.8425
X5.0Y-4.1732
X5.0Y-4.8031
X5.0689Y-4.311
X5.0689Y-4.4882
X5.0689Y-4.6654
T0
M30
