0
SECTION
2
HEADER
9
$INSUNITS
70
4
9
$ACADVER
1
AC1014
9
$HANDSEED
5
FFFF
0
ENDSEC
0
SECTION
2
TABLES
0
TABLE
2
VPORT
5
8
100
AcDbSymbolTable
0
ENDTAB
0
TABLE
2
LTYPE
5
5
100
AcDbSymbolTable
0
LTYPE
5
14
100
AcDbSymbolTableRecord
100
AcDbLinetypeTableRecord
2
BYBLOCK
70
0
0
LTYPE
5
15
100
AcDbSymbolTableRecord
100
AcDbLinetypeTableRecord
2
BYLAYER
70
0
0
ENDTAB
0
TABLE
2
LAYER
5
2
100
AcDbSymbolTable
70
2
0
LAYER
5
50
100
AcDbSymbolTableRecord
100
AcDbLayerTableRecord
2
0
70
0
6
CONTINUOUS
0
ENDTAB
0
TABLE
2
STYLE
5
3
100
AcDbSymbolTable
70
1
0
STYLE
5
11
100
AcDbSymbolTableRecord
100
AcDbTextStyleTableRecord
2
STANDARD
70
0
0
ENDTAB
0
TABLE
2
VIEW
5
6
100
AcDbSymbolTable
70
0
0
ENDTAB
0
TABLE
2
UCS
5
7
100
AcDbSymbolTable
70
0
0
ENDTAB
0
TABLE
2
APPID
5
9
100
AcDbSymbolTable
70
2
0
APPID
5
12
100
AcDbSymbolTableRecord
100
AcDbRegAppTableRecord
2
ACAD
70
0
0
ENDTAB
0
TABLE
2
DIMSTYLE
5
A
100
AcDbSymbolTable
70
1
0
ENDTAB
0
TABLE
2
BLOCK_RECORD
5
1
100
AcDbSymbolTable
70
1
0
BLOCK_RECORD
5
1F
100
AcDbSymbolTableRecord
100
AcDbBlockTableRecord
2
*MODEL_SPACE
0
BLOCK_RECORD
5
1B
100
AcDbSymbolTableRecord
100
AcDbBlockTableRecord
2
*PAPER_SPACE
0
ENDTAB
0
ENDSEC
0
SECTION
2
BLOCKS
0
BLOCK
5
20
100
AcDbEntity
100
AcDbBlockBegin
2
*MODEL_SPACE
0
ENDBLK
5
21
100
AcDbEntity
100
AcDbBlockEnd
0
BLOCK
5
1C
100
AcDbEntity
100
AcDbBlockBegin
2
*PAPER_SPACE
0
ENDBLK
5
1D
100
AcDbEntity
100
AcDbBlockEnd
0
ENDSEC
0
SECTION
2
ENTITIES
0
LWPOLYLINE
5
100
100
AcDbEntity
8
0
100
AcDbPolyline
90
6
70
1
43
0.0
10
43.248860000000001
20
117.31960000000001
10
43.248860000000001
20
106.31960000000001
10
43.248860000000001
20
95.319600000000008
42
-0.53846153846153944
10
17.248860000000004
20
95.319600000000008
10
17.248860000000004
20
106.31960000000001
10
17.248860000000008
20
117.31959999999999
42
-0.53846153846153955
0
LWPOLYLINE
5
101
100
AcDbEntity
8
0
100
AcDbPolyline
90
4
70
1
43
0.0
10
57.248860000000008
20
95.319600000000008
10
57.248859999999993
20
117.31960000000001
42
-0.53846153846153888
10
83.248860000000008
20
117.31960000000001
10
83.248860000000008
20
95.319600000000037
42
-0.53846153846153955
0
LWPOLYLINE
5
102
100
AcDbEntity
8
0
100
AcDbPolyline
90
4
70
1
43
0.0
10
107.24886000000001
20
117.31960000000001
42
-0.53846153846153888
10
133.24886000000001
20
117.31960000000001
10
133.24885999999998
20
95.319600000000008
42
-0.53846153846153888
10
107.24886000000001
20
95.319600000000008
0
LWPOLYLINE
5
103
100
AcDbEntity
8
0
100
AcDbPolyline
90
4
70
1
43
0.0
10
147.24886000000001
20
117.31960000000001
42
-0.5384615384615391
10
173.24886000000004
20
117.31960000000001
10
173.24886000000004
20
95.319600000000008
42
-0.53935329510108765
10
147.24886000000001
20
95.319600000000008
0
LWPOLYLINE
5
104
100
AcDbEntity
8
0
100
AcDbPolyline
90
8
70
1
43
0.0
10
159.75999980106948
20
33.029999801069508
10
28.759999801069497
20
33.029999801069508
42
-0.41421356237309348
10
26.259999801069497
20
35.529999801069501
10
26.25999980106949
20
36.529999801069508
42
-0.41421356237309764
10
28.759999801069505
20
39.029999801069508
10
159.75999980106948
20
39.029999801069508
42
-0.4142135623730997
10
162.25999980106948
20
36.529999801069508
10
162.25999980106948
20
35.529999801069508
42
-0.41421356237310025
0
LWPOLYLINE
5
105
100
AcDbEntity
8
0
100
AcDbPolyline
90
8
70
1
43
0.0
10
159.75999980106948
20
49.029999801069508
10
28.759999801069497
20
49.029999801069508
42
-0.41421356237309348
10
26.259999801069501
20
51.529999801069494
10
26.259999801069497
20
52.529999801069501
42
-0.41421356237309609
10
28.759999801069505
20
55.029999801069501
10
159.75999980106948
20
55.029999801069501
42
-0.4142135623730992
10
162.25999980106948
20
52.529999801069501
10
162.25999980106948
20
51.529999801069508
42
-0.4142135623730992
0
LWPOLYLINE
5
106
100
AcDbEntity
8
0
100
AcDbPolyline
90
8
70
1
43
0.0
10
159.75999980106948
20
65.029999801069508
10
28.759999801069497
20
65.029999801069508
42
-0.41421356237309348
10
26.259999801069501
20
67.529999801069494
10
26.259999801069497
20
68.529999801069494
42
-0.41421356237309609
10
28.759999801069505
20
71.029999801069494
10
159.75999980106948
20
71.029999801069494
42
-0.4142135623730992
10
162.25999980106948
20
68.529999801069494
10
162.25999980106948
20
67.529999801069508
42
-0.4142135623730992
0
LWPOLYLINE
5
107
100
AcDbEntity
8
0
100
AcDbPolyline
90
8
70
1
43
0.0
10
159.75999980106948
20
23.029999801069501
10
28.759999801069497
20
23.029999801069501
42
0.41421356237309503
10
26.259999801069497
20
20.529999801069501
10
26.259999801069497
20
19.529999801069501
42
0.41421356237309553
10
28.759999801069505
20
17.029999801069494
10
159.75999980106948
20
17.029999801069483
42
0.41421356237310675
10
162.25999980106948
20
19.529999801069447
10
162.25999980106948
20
20.529999801069501
42
0.4142135623730997
0
LINE
5
108
100
AcDbEntity
8
0
100
AcDbLine
10
-6.3499999999999996
20
-6.3499999999999996
30
0
11
196.84999999999999
21
-6.3499999999999996
31
0
0
LINE
5
109
100
AcDbEntity
8
0
100
AcDbLine
10
196.84999999999999
20
-6.3499999999999961
30
0
11
196.84999999999999
21
146.04999999999998
31
0
0
LINE
5
110
100
AcDbEntity
8
0
100
AcDbLine
10
196.84999999999999
20
146.04999999999998
30
0
11
-6.3500000000000156
21
146.04999999999998
31
0
0
LINE
5
111
100
AcDbEntity
8
0
100
AcDbLine
10
-6.3499999999999961
20
146.04999999999998
30
0
11
-6.3499999999999996
21
-6.3499999999999979
31
0
0
CIRCLE
5
112
100
AcDbEntity
8
0
100
AcDbCircle
10
8.8900000000000006
20
8.8900000000000006
30
0
40
1.8414999999999992
210
0
220
-0
230
1
0
CIRCLE
5
113
100
AcDbEntity
8
0
100
AcDbCircle
10
8.8900000000000006
20
86.359999999999985
30
0
40
1.8414999999999992
210
0
220
-0
230
1
0
CIRCLE
5
114
100
AcDbEntity
8
0
100
AcDbCircle
10
8.8900000000000006
20
130.81
30
0
40
1.8414999999999992
210
0
220
-0
230
1
0
CIRCLE
5
115
100
AcDbEntity
8
0
100
AcDbCircle
10
95.25
20
130.81
30
0
40
1.841500000000007
210
0
220
-0
230
1
0
CIRCLE
5
116
100
AcDbEntity
8
0
100
AcDbCircle
10
181.61000000000001
20
130.81
30
0
40
1.8414999999999939
210
0
220
-0
230
1
0
CIRCLE
5
117
100
AcDbEntity
8
0
100
AcDbCircle
10
181.61000000000001
20
86.359999999999985
30
0
40
1.841500000000007
210
0
220
-0
230
1
0
CIRCLE
5
118
100
AcDbEntity
8
0
100
AcDbCircle
10
181.61000000000001
20
8.8900000000000006
30
0
40
1.8414999999999893
210
0
220
-0
230
1
0
CIRCLE
5
119
100
AcDbEntity
8
0
100
AcDbCircle
10
95.249999999999986
20
8.8900000000000006
30
0
40
1.841500000000007
210
0
220
-0
230
1
0
ENDSEC
0
SECTION
2
OBJECTS
0
DICTIONARY
5
C
100
AcDbDictionary
3
ACAD_GROUP
350
D
3
ACAD_MLINESTYLE
350
17
0
DICTIONARY
5
D
100
AcDbDictionary
0
DICTIONARY
5
1A
330
C
100
AcDbDictionary
0
DICTIONARY
5
17
100
AcDbDictionary
0
ENDSEC
0
EOF
