%TF.GenerationSoftware,KiCad,Pcbnew,(6.0.1-0)*%
%TF.CreationDate,2022-02-14T11:55:45-05:00*%
%TF.ProjectId,nixie-tube-clock,6e697869-652d-4747-9562-652d636c6f63,rev?*%
%TF.SameCoordinates,Original*%
%TF.FileFunction,Legend,Top*%
%TF.FilePolarity,Positive*%
%FSLAX46Y46*%
G04 Gerber Fmt 4.6, Leading zero omitted, Abs format (unit mm)*
G04 Created by KiCad (PCBNEW (6.0.1-0)) date 2022-02-14 11:55:45*
%MOMM*%
%LPD*%
G01*
G04 APERTURE LIST*
%ADD10C,0.150000*%
%ADD11C,0.120000*%
G04 APERTURE END LIST*
D10*
%TO.C,IN-12A_2*%
X116619036Y-30452374D02*
X116619036Y-29452374D01*
X117095227Y-30452374D02*
X117095227Y-29452374D01*
X117666655Y-30452374D01*
X117666655Y-29452374D01*
X118142846Y-30071422D02*
X118904750Y-30071422D01*
X119904750Y-30452374D02*
X119333322Y-30452374D01*
X119619036Y-30452374D02*
X119619036Y-29452374D01*
X119523798Y-29595232D01*
X119428560Y-29690470D01*
X119333322Y-29738089D01*
X120285703Y-29547613D02*
X120333322Y-29499994D01*
X120428560Y-29452374D01*
X120666655Y-29452374D01*
X120761893Y-29499994D01*
X120809512Y-29547613D01*
X120857131Y-29642851D01*
X120857131Y-29738089D01*
X120809512Y-29880946D01*
X120238084Y-30452374D01*
X120857131Y-30452374D01*
X121238084Y-30166660D02*
X121714274Y-30166660D01*
X121142846Y-30452374D02*
X121476179Y-29452374D01*
X121809512Y-30452374D01*
X121904750Y-30547613D02*
X122666655Y-30547613D01*
X122857131Y-29547613D02*
X122904750Y-29499994D01*
X122999989Y-29452374D01*
X123238084Y-29452374D01*
X123333322Y-29499994D01*
X123380941Y-29547613D01*
X123428560Y-29642851D01*
X123428560Y-29738089D01*
X123380941Y-29880946D01*
X122809512Y-30452374D01*
X123428560Y-30452374D01*
%TO.C,IN-12A_3*%
X166619047Y-30452380D02*
X166619047Y-29452380D01*
X167095238Y-30452380D02*
X167095238Y-29452380D01*
X167666666Y-30452380D01*
X167666666Y-29452380D01*
X168142857Y-30071428D02*
X168904761Y-30071428D01*
X169904761Y-30452380D02*
X169333333Y-30452380D01*
X169619047Y-30452380D02*
X169619047Y-29452380D01*
X169523809Y-29595238D01*
X169428571Y-29690476D01*
X169333333Y-29738095D01*
X170285714Y-29547619D02*
X170333333Y-29500000D01*
X170428571Y-29452380D01*
X170666666Y-29452380D01*
X170761904Y-29500000D01*
X170809523Y-29547619D01*
X170857142Y-29642857D01*
X170857142Y-29738095D01*
X170809523Y-29880952D01*
X170238095Y-30452380D01*
X170857142Y-30452380D01*
X171238095Y-30166666D02*
X171714285Y-30166666D01*
X171142857Y-30452380D02*
X171476190Y-29452380D01*
X171809523Y-30452380D01*
X171904761Y-30547619D02*
X172666666Y-30547619D01*
X172809523Y-29452380D02*
X173428571Y-29452380D01*
X173095238Y-29833333D01*
X173238095Y-29833333D01*
X173333333Y-29880952D01*
X173380952Y-29928571D01*
X173428571Y-30023809D01*
X173428571Y-30261904D01*
X173380952Y-30357142D01*
X173333333Y-30404761D01*
X173238095Y-30452380D01*
X172952380Y-30452380D01*
X172857142Y-30404761D01*
X172809523Y-30357142D01*
%TO.C,IN-13_4*%
X232047619Y-137047619D02*
X233047619Y-137047619D01*
X232047619Y-137523809D02*
X233047619Y-137523809D01*
X232047619Y-138095238D01*
X233047619Y-138095238D01*
X232428571Y-138571428D02*
X232428571Y-139333333D01*
X232047619Y-140333333D02*
X232047619Y-139761904D01*
X232047619Y-140047619D02*
X233047619Y-140047619D01*
X232904761Y-139952380D01*
X232809523Y-139857142D01*
X232761904Y-139761904D01*
X233047619Y-140666666D02*
X233047619Y-141285714D01*
X232666666Y-140952380D01*
X232666666Y-141095238D01*
X232619047Y-141190476D01*
X232571428Y-141238095D01*
X232476190Y-141285714D01*
X232238095Y-141285714D01*
X232142857Y-141238095D01*
X232095238Y-141190476D01*
X232047619Y-141095238D01*
X232047619Y-140809523D01*
X232095238Y-140714285D01*
X232142857Y-140666666D01*
X231952380Y-141476190D02*
X231952380Y-142238095D01*
X232714285Y-142904761D02*
X232047619Y-142904761D01*
X233095238Y-142666666D02*
X232380952Y-142428571D01*
X232380952Y-143047619D01*
X68761904Y-143666666D02*
X69238095Y-143666666D01*
X68666666Y-143952380D02*
X69000000Y-142952380D01*
X69333333Y-143952380D01*
X68761904Y-136666666D02*
X69238095Y-136666666D01*
X68666666Y-136952380D02*
X69000000Y-135952380D01*
X69333333Y-136952380D01*
X69666666Y-135952380D02*
X69666666Y-136761904D01*
X69714285Y-136857142D01*
X69761904Y-136904761D01*
X69857142Y-136952380D01*
X70047619Y-136952380D01*
X70142857Y-136904761D01*
X70190476Y-136857142D01*
X70238095Y-136761904D01*
X70238095Y-135952380D01*
X70619047Y-135952380D02*
X71285714Y-136952380D01*
X71285714Y-135952380D02*
X70619047Y-136952380D01*
X68738095Y-140452380D02*
X68738095Y-139452380D01*
X69309523Y-140452380D02*
X68880952Y-139880952D01*
X69309523Y-139452380D02*
X68738095Y-140023809D01*
%TO.C,D6*%
X144256904Y-57892380D02*
X144256904Y-56892380D01*
X144495000Y-56892380D01*
X144637857Y-56940000D01*
X144733095Y-57035238D01*
X144780714Y-57130476D01*
X144828333Y-57320952D01*
X144828333Y-57463809D01*
X144780714Y-57654285D01*
X144733095Y-57749523D01*
X144637857Y-57844761D01*
X144495000Y-57892380D01*
X144256904Y-57892380D01*
X145685476Y-56892380D02*
X145495000Y-56892380D01*
X145399761Y-56940000D01*
X145352142Y-56987619D01*
X145256904Y-57130476D01*
X145209285Y-57320952D01*
X145209285Y-57701904D01*
X145256904Y-57797142D01*
X145304523Y-57844761D01*
X145399761Y-57892380D01*
X145590238Y-57892380D01*
X145685476Y-57844761D01*
X145733095Y-57797142D01*
X145780714Y-57701904D01*
X145780714Y-57463809D01*
X145733095Y-57368571D01*
X145685476Y-57320952D01*
X145590238Y-57273333D01*
X145399761Y-57273333D01*
X145304523Y-57320952D01*
X145256904Y-57368571D01*
X145209285Y-57463809D01*
%TO.C,IN-13_1*%
X232047619Y-89047619D02*
X233047619Y-89047619D01*
X232047619Y-89523809D02*
X233047619Y-89523809D01*
X232047619Y-90095238D01*
X233047619Y-90095238D01*
X232428571Y-90571428D02*
X232428571Y-91333333D01*
X232047619Y-92333333D02*
X232047619Y-91761904D01*
X232047619Y-92047619D02*
X233047619Y-92047619D01*
X232904761Y-91952380D01*
X232809523Y-91857142D01*
X232761904Y-91761904D01*
X233047619Y-92666666D02*
X233047619Y-93285714D01*
X232666666Y-92952380D01*
X232666666Y-93095238D01*
X232619047Y-93190476D01*
X232571428Y-93238095D01*
X232476190Y-93285714D01*
X232238095Y-93285714D01*
X232142857Y-93238095D01*
X232095238Y-93190476D01*
X232047619Y-93095238D01*
X232047619Y-92809523D01*
X232095238Y-92714285D01*
X232142857Y-92666666D01*
X231952380Y-93476190D02*
X231952380Y-94238095D01*
X232047619Y-95000000D02*
X232047619Y-94428571D01*
X232047619Y-94714285D02*
X233047619Y-94714285D01*
X232904761Y-94619047D01*
X232809523Y-94523809D01*
X232761904Y-94428571D01*
X68738095Y-92452380D02*
X68738095Y-91452380D01*
X69309523Y-92452380D02*
X68880952Y-91880952D01*
X69309523Y-91452380D02*
X68738095Y-92023809D01*
X68761904Y-95666666D02*
X69238095Y-95666666D01*
X68666666Y-95952380D02*
X69000000Y-94952380D01*
X69333333Y-95952380D01*
X68761904Y-88666666D02*
X69238095Y-88666666D01*
X68666666Y-88952380D02*
X69000000Y-87952380D01*
X69333333Y-88952380D01*
X69666666Y-87952380D02*
X69666666Y-88761904D01*
X69714285Y-88857142D01*
X69761904Y-88904761D01*
X69857142Y-88952380D01*
X70047619Y-88952380D01*
X70142857Y-88904761D01*
X70190476Y-88857142D01*
X70238095Y-88761904D01*
X70238095Y-87952380D01*
X70619047Y-87952380D02*
X71285714Y-88952380D01*
X71285714Y-87952380D02*
X70619047Y-88952380D01*
%TO.C,IN-12A_1*%
X76619039Y-30452374D02*
X76619039Y-29452374D01*
X77095230Y-30452374D02*
X77095230Y-29452374D01*
X77666658Y-30452374D01*
X77666658Y-29452374D01*
X78142849Y-30071422D02*
X78904753Y-30071422D01*
X79904753Y-30452374D02*
X79333325Y-30452374D01*
X79619039Y-30452374D02*
X79619039Y-29452374D01*
X79523801Y-29595232D01*
X79428563Y-29690470D01*
X79333325Y-29738089D01*
X80285706Y-29547613D02*
X80333325Y-29499994D01*
X80428563Y-29452374D01*
X80666658Y-29452374D01*
X80761896Y-29499994D01*
X80809515Y-29547613D01*
X80857134Y-29642851D01*
X80857134Y-29738089D01*
X80809515Y-29880946D01*
X80238087Y-30452374D01*
X80857134Y-30452374D01*
X81238087Y-30166660D02*
X81714277Y-30166660D01*
X81142849Y-30452374D02*
X81476182Y-29452374D01*
X81809515Y-30452374D01*
X81904753Y-30547613D02*
X82666658Y-30547613D01*
X83428563Y-30452374D02*
X82857134Y-30452374D01*
X83142849Y-30452374D02*
X83142849Y-29452374D01*
X83047611Y-29595232D01*
X82952372Y-29690470D01*
X82857134Y-29738089D01*
%TO.C,IN-13_2*%
X232047619Y-105047619D02*
X233047619Y-105047619D01*
X232047619Y-105523809D02*
X233047619Y-105523809D01*
X232047619Y-106095238D01*
X233047619Y-106095238D01*
X232428571Y-106571428D02*
X232428571Y-107333333D01*
X232047619Y-108333333D02*
X232047619Y-107761904D01*
X232047619Y-108047619D02*
X233047619Y-108047619D01*
X232904761Y-107952380D01*
X232809523Y-107857142D01*
X232761904Y-107761904D01*
X233047619Y-108666666D02*
X233047619Y-109285714D01*
X232666666Y-108952380D01*
X232666666Y-109095238D01*
X232619047Y-109190476D01*
X232571428Y-109238095D01*
X232476190Y-109285714D01*
X232238095Y-109285714D01*
X232142857Y-109238095D01*
X232095238Y-109190476D01*
X232047619Y-109095238D01*
X232047619Y-108809523D01*
X232095238Y-108714285D01*
X232142857Y-108666666D01*
X231952380Y-109476190D02*
X231952380Y-110238095D01*
X232952380Y-110428571D02*
X233000000Y-110476190D01*
X233047619Y-110571428D01*
X233047619Y-110809523D01*
X233000000Y-110904761D01*
X232952380Y-110952380D01*
X232857142Y-111000000D01*
X232761904Y-111000000D01*
X232619047Y-110952380D01*
X232047619Y-110380952D01*
X232047619Y-111000000D01*
X68738095Y-108452380D02*
X68738095Y-107452380D01*
X69309523Y-108452380D02*
X68880952Y-107880952D01*
X69309523Y-107452380D02*
X68738095Y-108023809D01*
X68761904Y-111666666D02*
X69238095Y-111666666D01*
X68666666Y-111952380D02*
X69000000Y-110952380D01*
X69333333Y-111952380D01*
X68761904Y-104666666D02*
X69238095Y-104666666D01*
X68666666Y-104952380D02*
X69000000Y-103952380D01*
X69333333Y-104952380D01*
X69666666Y-103952380D02*
X69666666Y-104761904D01*
X69714285Y-104857142D01*
X69761904Y-104904761D01*
X69857142Y-104952380D01*
X70047619Y-104952380D01*
X70142857Y-104904761D01*
X70190476Y-104857142D01*
X70238095Y-104761904D01*
X70238095Y-103952380D01*
X70619047Y-103952380D02*
X71285714Y-104952380D01*
X71285714Y-103952380D02*
X70619047Y-104952380D01*
%TO.C,IN-12A_4*%
X206619059Y-30452374D02*
X206619059Y-29452374D01*
X207095250Y-30452374D02*
X207095250Y-29452374D01*
X207666678Y-30452374D01*
X207666678Y-29452374D01*
X208142869Y-30071422D02*
X208904773Y-30071422D01*
X209904773Y-30452374D02*
X209333345Y-30452374D01*
X209619059Y-30452374D02*
X209619059Y-29452374D01*
X209523821Y-29595232D01*
X209428583Y-29690470D01*
X209333345Y-29738089D01*
X210285726Y-29547613D02*
X210333345Y-29499994D01*
X210428583Y-29452374D01*
X210666678Y-29452374D01*
X210761916Y-29499994D01*
X210809535Y-29547613D01*
X210857154Y-29642851D01*
X210857154Y-29738089D01*
X210809535Y-29880946D01*
X210238107Y-30452374D01*
X210857154Y-30452374D01*
X211238107Y-30166660D02*
X211714297Y-30166660D01*
X211142869Y-30452374D02*
X211476202Y-29452374D01*
X211809535Y-30452374D01*
X211904773Y-30547613D02*
X212666678Y-30547613D01*
X213333345Y-29785708D02*
X213333345Y-30452374D01*
X213095250Y-29404755D02*
X212857154Y-30119041D01*
X213476202Y-30119041D01*
%TO.C,D5*%
X144256904Y-39892380D02*
X144256904Y-38892380D01*
X144495000Y-38892380D01*
X144637857Y-38940000D01*
X144733095Y-39035238D01*
X144780714Y-39130476D01*
X144828333Y-39320952D01*
X144828333Y-39463809D01*
X144780714Y-39654285D01*
X144733095Y-39749523D01*
X144637857Y-39844761D01*
X144495000Y-39892380D01*
X144256904Y-39892380D01*
X145733095Y-38892380D02*
X145256904Y-38892380D01*
X145209285Y-39368571D01*
X145256904Y-39320952D01*
X145352142Y-39273333D01*
X145590238Y-39273333D01*
X145685476Y-39320952D01*
X145733095Y-39368571D01*
X145780714Y-39463809D01*
X145780714Y-39701904D01*
X145733095Y-39797142D01*
X145685476Y-39844761D01*
X145590238Y-39892380D01*
X145352142Y-39892380D01*
X145256904Y-39844761D01*
X145209285Y-39797142D01*
%TO.C,IN-13_3*%
X232047619Y-121047619D02*
X233047619Y-121047619D01*
X232047619Y-121523809D02*
X233047619Y-121523809D01*
X232047619Y-122095238D01*
X233047619Y-122095238D01*
X232428571Y-122571428D02*
X232428571Y-123333333D01*
X232047619Y-124333333D02*
X232047619Y-123761904D01*
X232047619Y-124047619D02*
X233047619Y-124047619D01*
X232904761Y-123952380D01*
X232809523Y-123857142D01*
X232761904Y-123761904D01*
X233047619Y-124666666D02*
X233047619Y-125285714D01*
X232666666Y-124952380D01*
X232666666Y-125095238D01*
X232619047Y-125190476D01*
X232571428Y-125238095D01*
X232476190Y-125285714D01*
X232238095Y-125285714D01*
X232142857Y-125238095D01*
X232095238Y-125190476D01*
X232047619Y-125095238D01*
X232047619Y-124809523D01*
X232095238Y-124714285D01*
X232142857Y-124666666D01*
X231952380Y-125476190D02*
X231952380Y-126238095D01*
X233047619Y-126380952D02*
X233047619Y-127000000D01*
X232666666Y-126666666D01*
X232666666Y-126809523D01*
X232619047Y-126904761D01*
X232571428Y-126952380D01*
X232476190Y-127000000D01*
X232238095Y-127000000D01*
X232142857Y-126952380D01*
X232095238Y-126904761D01*
X232047619Y-126809523D01*
X232047619Y-126523809D01*
X232095238Y-126428571D01*
X232142857Y-126380952D01*
X68761904Y-120666666D02*
X69238095Y-120666666D01*
X68666666Y-120952380D02*
X69000000Y-119952380D01*
X69333333Y-120952380D01*
X69666666Y-119952380D02*
X69666666Y-120761904D01*
X69714285Y-120857142D01*
X69761904Y-120904761D01*
X69857142Y-120952380D01*
X70047619Y-120952380D01*
X70142857Y-120904761D01*
X70190476Y-120857142D01*
X70238095Y-120761904D01*
X70238095Y-119952380D01*
X70619047Y-119952380D02*
X71285714Y-120952380D01*
X71285714Y-119952380D02*
X70619047Y-120952380D01*
X68761904Y-127666666D02*
X69238095Y-127666666D01*
X68666666Y-127952380D02*
X69000000Y-126952380D01*
X69333333Y-127952380D01*
X68738095Y-124452380D02*
X68738095Y-123452380D01*
X69309523Y-124452380D02*
X68880952Y-123880952D01*
X69309523Y-123452380D02*
X68738095Y-124023809D01*
D11*
%TO.C,IN-12A_2*%
X105999989Y-57999994D02*
X105999989Y-35999994D01*
X129999989Y-31999994D02*
X109999989Y-31999994D01*
X129999989Y-75999994D02*
X119999989Y-75999994D01*
X109999989Y-75999994D02*
X119999989Y-75999994D01*
X133999989Y-53999994D02*
X133999989Y-71999994D01*
X133999989Y-53999994D02*
X133999989Y-35999994D01*
X105999989Y-53999994D02*
X105999989Y-71999994D01*
X105999989Y-71999994D02*
G75*
G03*
X109999989Y-75999994I4000000J0D01*
G01*
X129999989Y-75999994D02*
G75*
G03*
X133999989Y-71999994I0J4000000D01*
G01*
X109999989Y-31999994D02*
G75*
G03*
X105999989Y-35999994I0J-4000000D01*
G01*
X133999989Y-35999994D02*
G75*
G03*
X129999989Y-31999994I-4000000J0D01*
G01*
%TO.C,IN-12A_3*%
X184000000Y-54000000D02*
X184000000Y-36000000D01*
X180000000Y-76000000D02*
X170000000Y-76000000D01*
X184000000Y-54000000D02*
X184000000Y-72000000D01*
X160000000Y-76000000D02*
X170000000Y-76000000D01*
X156000000Y-54000000D02*
X156000000Y-72000000D01*
X180000000Y-32000000D02*
X160000000Y-32000000D01*
X156000000Y-58000000D02*
X156000000Y-36000000D01*
X184000000Y-36000000D02*
G75*
G03*
X180000000Y-32000000I-4000000J0D01*
G01*
X180000000Y-76000000D02*
G75*
G03*
X184000000Y-72000000I0J4000000D01*
G01*
X156000000Y-72000000D02*
G75*
G03*
X160000000Y-76000000I4000000J0D01*
G01*
X160000000Y-32000000D02*
G75*
G03*
X156000000Y-36000000I0J-4000000D01*
G01*
%TO.C,IN-13_4*%
X230000000Y-140000000D02*
X226000000Y-135000000D01*
X80000000Y-138500000D02*
X210000000Y-138500000D01*
X226000000Y-145000000D02*
X68000000Y-145000000D01*
X68000000Y-145000000D02*
X68000000Y-135000000D01*
X226000000Y-135000000D02*
X68000000Y-135000000D01*
X95000000Y-141500000D02*
X195000000Y-141500000D01*
X230000000Y-140000000D02*
X226000000Y-145000000D01*
X68000000Y-136000000D02*
X65000000Y-136000000D01*
X65000000Y-136000000D02*
X65000000Y-137000000D01*
X65000000Y-137000000D02*
X68000000Y-137000000D01*
X68000000Y-137000000D02*
X68000000Y-136000000D01*
G36*
X68000000Y-136000000D02*
G01*
X65000000Y-136000000D01*
X65000000Y-137000000D01*
X68000000Y-137000000D01*
X68000000Y-136000000D01*
G37*
X78000000Y-138500000D02*
X210000000Y-138500000D01*
X210000000Y-138500000D02*
X210000000Y-141500000D01*
X210000000Y-141500000D02*
X78000000Y-141500000D01*
X78000000Y-141500000D02*
X78000000Y-138500000D01*
G36*
X78000000Y-138500000D02*
G01*
X210000000Y-138500000D01*
X210000000Y-141500000D01*
X78000000Y-141500000D01*
X78000000Y-138500000D01*
G37*
X68000000Y-143000000D02*
X65000000Y-143000000D01*
X65000000Y-143000000D02*
X65000000Y-144000000D01*
X65000000Y-144000000D02*
X68000000Y-144000000D01*
X68000000Y-144000000D02*
X68000000Y-143000000D01*
G36*
X68000000Y-143000000D02*
G01*
X65000000Y-143000000D01*
X65000000Y-144000000D01*
X68000000Y-144000000D01*
X68000000Y-143000000D01*
G37*
X68000000Y-139500000D02*
X65000000Y-139500000D01*
X65000000Y-139500000D02*
X65000000Y-140500000D01*
X65000000Y-140500000D02*
X68000000Y-140500000D01*
X68000000Y-140500000D02*
X68000000Y-139500000D01*
G36*
X68000000Y-139500000D02*
G01*
X65000000Y-139500000D01*
X65000000Y-140500000D01*
X68000000Y-140500000D01*
X68000000Y-139500000D01*
G37*
%TO.C,D6*%
X140935000Y-60858000D02*
X140935000Y-65142000D01*
X140935000Y-65141145D02*
G75*
G03*
X149585000Y-62999514I4060000J2141145D01*
G01*
X149585000Y-63000486D02*
G75*
G03*
X140935000Y-60858855I-4590000J486D01*
G01*
X148995000Y-63000000D02*
G75*
G03*
X148995000Y-63000000I-4000000J0D01*
G01*
%TO.C,IN-13_1*%
X80000000Y-90500000D02*
X210000000Y-90500000D01*
X230000000Y-92000000D02*
X226000000Y-87000000D01*
X226000000Y-97000000D02*
X68000000Y-97000000D01*
X230000000Y-92000000D02*
X226000000Y-97000000D01*
X226000000Y-87000000D02*
X68000000Y-87000000D01*
X95000000Y-93500000D02*
X195000000Y-93500000D01*
X68000000Y-97000000D02*
X68000000Y-87000000D01*
X78000000Y-90500000D02*
X210000000Y-90500000D01*
X210000000Y-90500000D02*
X210000000Y-93500000D01*
X210000000Y-93500000D02*
X78000000Y-93500000D01*
X78000000Y-93500000D02*
X78000000Y-90500000D01*
G36*
X78000000Y-90500000D02*
G01*
X210000000Y-90500000D01*
X210000000Y-93500000D01*
X78000000Y-93500000D01*
X78000000Y-90500000D01*
G37*
X68000000Y-91500000D02*
X65000000Y-91500000D01*
X65000000Y-91500000D02*
X65000000Y-92500000D01*
X65000000Y-92500000D02*
X68000000Y-92500000D01*
X68000000Y-92500000D02*
X68000000Y-91500000D01*
G36*
X68000000Y-91500000D02*
G01*
X65000000Y-91500000D01*
X65000000Y-92500000D01*
X68000000Y-92500000D01*
X68000000Y-91500000D01*
G37*
X68000000Y-95000000D02*
X65000000Y-95000000D01*
X65000000Y-95000000D02*
X65000000Y-96000000D01*
X65000000Y-96000000D02*
X68000000Y-96000000D01*
X68000000Y-96000000D02*
X68000000Y-95000000D01*
G36*
X68000000Y-95000000D02*
G01*
X65000000Y-95000000D01*
X65000000Y-96000000D01*
X68000000Y-96000000D01*
X68000000Y-95000000D01*
G37*
X68000000Y-88000000D02*
X65000000Y-88000000D01*
X65000000Y-88000000D02*
X65000000Y-89000000D01*
X65000000Y-89000000D02*
X68000000Y-89000000D01*
X68000000Y-89000000D02*
X68000000Y-88000000D01*
G36*
X68000000Y-88000000D02*
G01*
X65000000Y-88000000D01*
X65000000Y-89000000D01*
X68000000Y-89000000D01*
X68000000Y-88000000D01*
G37*
%TO.C,IN-12A_1*%
X65999992Y-57999994D02*
X65999992Y-35999994D01*
X69999992Y-75999994D02*
X79999992Y-75999994D01*
X65999992Y-53999994D02*
X65999992Y-71999994D01*
X89999992Y-75999994D02*
X79999992Y-75999994D01*
X93999992Y-53999994D02*
X93999992Y-71999994D01*
X93999992Y-53999994D02*
X93999992Y-35999994D01*
X89999992Y-31999994D02*
X69999992Y-31999994D01*
X93999992Y-35999994D02*
G75*
G03*
X89999992Y-31999994I-4000000J0D01*
G01*
X69999992Y-31999994D02*
G75*
G03*
X65999992Y-35999994I0J-4000000D01*
G01*
X65999992Y-71999994D02*
G75*
G03*
X69999992Y-75999994I4000000J0D01*
G01*
X89999992Y-75999994D02*
G75*
G03*
X93999992Y-71999994I0J4000000D01*
G01*
%TO.C,IN-13_2*%
X226000000Y-103000000D02*
X68000000Y-103000000D01*
X226000000Y-113000000D02*
X68000000Y-113000000D01*
X80000000Y-106500000D02*
X210000000Y-106500000D01*
X68000000Y-113000000D02*
X68000000Y-103000000D01*
X230000000Y-108000000D02*
X226000000Y-113000000D01*
X95000000Y-109500000D02*
X195000000Y-109500000D01*
X230000000Y-108000000D02*
X226000000Y-103000000D01*
X78000000Y-106500000D02*
X210000000Y-106500000D01*
X210000000Y-106500000D02*
X210000000Y-109500000D01*
X210000000Y-109500000D02*
X78000000Y-109500000D01*
X78000000Y-109500000D02*
X78000000Y-106500000D01*
G36*
X78000000Y-106500000D02*
G01*
X210000000Y-106500000D01*
X210000000Y-109500000D01*
X78000000Y-109500000D01*
X78000000Y-106500000D01*
G37*
X68000000Y-111000000D02*
X65000000Y-111000000D01*
X65000000Y-111000000D02*
X65000000Y-112000000D01*
X65000000Y-112000000D02*
X68000000Y-112000000D01*
X68000000Y-112000000D02*
X68000000Y-111000000D01*
G36*
X68000000Y-111000000D02*
G01*
X65000000Y-111000000D01*
X65000000Y-112000000D01*
X68000000Y-112000000D01*
X68000000Y-111000000D01*
G37*
X68000000Y-107500000D02*
X65000000Y-107500000D01*
X65000000Y-107500000D02*
X65000000Y-108500000D01*
X65000000Y-108500000D02*
X68000000Y-108500000D01*
X68000000Y-108500000D02*
X68000000Y-107500000D01*
G36*
X68000000Y-107500000D02*
G01*
X65000000Y-107500000D01*
X65000000Y-108500000D01*
X68000000Y-108500000D01*
X68000000Y-107500000D01*
G37*
X68000000Y-104000000D02*
X65000000Y-104000000D01*
X65000000Y-104000000D02*
X65000000Y-105000000D01*
X65000000Y-105000000D02*
X68000000Y-105000000D01*
X68000000Y-105000000D02*
X68000000Y-104000000D01*
G36*
X68000000Y-104000000D02*
G01*
X65000000Y-104000000D01*
X65000000Y-105000000D01*
X68000000Y-105000000D01*
X68000000Y-104000000D01*
G37*
%TO.C,IN-12A_4*%
X224000012Y-53999994D02*
X224000012Y-71999994D01*
X196000012Y-53999994D02*
X196000012Y-71999994D01*
X220000012Y-31999994D02*
X200000012Y-31999994D01*
X200000012Y-75999994D02*
X210000012Y-75999994D01*
X196000012Y-57999994D02*
X196000012Y-35999994D01*
X220000012Y-75999994D02*
X210000012Y-75999994D01*
X224000012Y-53999994D02*
X224000012Y-35999994D01*
X200000012Y-31999994D02*
G75*
G03*
X196000012Y-35999994I0J-4000000D01*
G01*
X224000012Y-35999994D02*
G75*
G03*
X220000012Y-31999994I-4000000J0D01*
G01*
X220000012Y-75999994D02*
G75*
G03*
X224000012Y-71999994I0J4000000D01*
G01*
X196000012Y-71999994D02*
G75*
G03*
X200000012Y-75999994I4000000J0D01*
G01*
%TO.C,D5*%
X140935000Y-42858000D02*
X140935000Y-47142000D01*
X140935000Y-47141145D02*
G75*
G03*
X149585000Y-44999514I4060000J2141145D01*
G01*
X149585000Y-45000486D02*
G75*
G03*
X140935000Y-42858855I-4590000J486D01*
G01*
X148995000Y-45000000D02*
G75*
G03*
X148995000Y-45000000I-4000000J0D01*
G01*
%TO.C,IN-13_3*%
X226000000Y-119000000D02*
X68000000Y-119000000D01*
X95000000Y-125500000D02*
X195000000Y-125500000D01*
X230000000Y-124000000D02*
X226000000Y-119000000D01*
X80000000Y-122500000D02*
X210000000Y-122500000D01*
X230000000Y-124000000D02*
X226000000Y-129000000D01*
X226000000Y-129000000D02*
X68000000Y-129000000D01*
X68000000Y-129000000D02*
X68000000Y-119000000D01*
X68000000Y-123500000D02*
X65000000Y-123500000D01*
X65000000Y-123500000D02*
X65000000Y-124500000D01*
X65000000Y-124500000D02*
X68000000Y-124500000D01*
X68000000Y-124500000D02*
X68000000Y-123500000D01*
G36*
X68000000Y-123500000D02*
G01*
X65000000Y-123500000D01*
X65000000Y-124500000D01*
X68000000Y-124500000D01*
X68000000Y-123500000D01*
G37*
X78000000Y-122500000D02*
X210000000Y-122500000D01*
X210000000Y-122500000D02*
X210000000Y-125500000D01*
X210000000Y-125500000D02*
X78000000Y-125500000D01*
X78000000Y-125500000D02*
X78000000Y-122500000D01*
G36*
X78000000Y-122500000D02*
G01*
X210000000Y-122500000D01*
X210000000Y-125500000D01*
X78000000Y-125500000D01*
X78000000Y-122500000D01*
G37*
X68000000Y-127000000D02*
X65000000Y-127000000D01*
X65000000Y-127000000D02*
X65000000Y-128000000D01*
X65000000Y-128000000D02*
X68000000Y-128000000D01*
X68000000Y-128000000D02*
X68000000Y-127000000D01*
G36*
X68000000Y-127000000D02*
G01*
X65000000Y-127000000D01*
X65000000Y-128000000D01*
X68000000Y-128000000D01*
X68000000Y-127000000D01*
G37*
X68000000Y-120000000D02*
X65000000Y-120000000D01*
X65000000Y-120000000D02*
X65000000Y-121000000D01*
X65000000Y-121000000D02*
X68000000Y-121000000D01*
X68000000Y-121000000D02*
X68000000Y-120000000D01*
G36*
X68000000Y-120000000D02*
G01*
X65000000Y-120000000D01*
X65000000Y-121000000D01*
X68000000Y-121000000D01*
X68000000Y-120000000D01*
G37*
%TD*%
M02*
