M48
; DRILL file {KiCad (6.0.1-0)} date Monday, February 14, 2022 at 11:55:48 AM
; FORMAT={-:-/ absolute / inch / decimal}
; #@! TF.CreationDate,2022-02-14T11:55:48-05:00
; #@! TF.GenerationSoftware,Kicad,Pcbnew,(6.0.1-0)
; #@! TF.FileFunction,NonPlated,1,4,NPTH
FMAT,2
INCH
; #@! TA.AperFunction,NonPlated,NPTH,ComponentDrill
T1C0.0787
; #@! TA.AperFunction,NonPlated,NPTH,ComponentDrill
T2C0.0945
; #@! TA.AperFunction,NonPlated,NPTH,ComponentDrill
T3C0.1969
%
G90
G05
T1
X9.3256Y-4.825
T3
X3.1496Y-2.126
X4.7244Y-2.126
X6.6929Y-2.126
X8.2677Y-2.126
T2
G00X2.6772Y-3.2756
M15
G01X2.6772Y-3.3386
M16
G05
G00X2.6772Y-3.9055
M15
G01X2.6772Y-3.9685
M16
G05
G00X2.6772Y-3.9055
M15
G01X2.6772Y-3.9685
M16
G05
G00X2.6772Y-4.5354
M15
G01X2.6772Y-4.5984
M16
G05
G00X2.6772Y-4.5354
M15
G01X2.6772Y-4.5984
M16
G05
G00X2.6772Y-5.1654
M15
G01X2.6772Y-5.2283
M16
G05
G00X2.6772Y-5.1654
M15
G01X2.6772Y-5.2283
M16
G05
G00X2.6772Y-5.7953
M15
G01X2.6772Y-5.8583
M16
G05
G00X2.874Y-3.2756
M15
G01X2.874Y-3.3386
M16
G05
G00X2.874Y-3.9055
M15
G01X2.874Y-3.9685
M16
G05
G00X2.874Y-3.9055
M15
G01X2.874Y-3.9685
M16
G05
G00X2.874Y-4.5354
M15
G01X2.874Y-4.5984
M16
G05
G00X2.874Y-4.5354
M15
G01X2.874Y-4.5984
M16
G05
G00X2.874Y-5.1654
M15
G01X2.874Y-5.2283
M16
G05
G00X2.874Y-5.1654
M15
G01X2.874Y-5.2283
M16
G05
G00X2.874Y-5.7953
M15
G01X2.874Y-5.8583
M16
G05
G00X3.0709Y-3.2756
M15
G01X3.0709Y-3.3386
M16
G05
G00X3.0709Y-3.9055
M15
G01X3.0709Y-3.9685
M16
G05
G00X3.0709Y-3.9055
M15
G01X3.0709Y-3.9685
M16
G05
G00X3.0709Y-4.5354
M15
G01X3.0709Y-4.5984
M16
G05
G00X3.0709Y-4.5354
M15
G01X3.0709Y-4.5984
M16
G05
G00X3.0709Y-5.1654
M15
G01X3.0709Y-5.2283
M16
G05
G00X3.0709Y-5.1654
M15
G01X3.0709Y-5.2283
M16
G05
G00X3.0709Y-5.7953
M15
G01X3.0709Y-5.8583
M16
G05
G00X8.2677Y-3.2756
M15
G01X8.2677Y-3.3386
M16
G05
G00X8.2677Y-3.9055
M15
G01X8.2677Y-3.9685
M16
G05
G00X8.2677Y-3.9055
M15
G01X8.2677Y-3.9685
M16
G05
G00X8.2677Y-4.5354
M15
G01X8.2677Y-4.5984
M16
G05
G00X8.2677Y-4.5354
M15
G01X8.2677Y-4.5984
M16
G05
G00X8.2677Y-5.1654
M15
G01X8.2677Y-5.2283
M16
G05
G00X8.2677Y-5.1654
M15
G01X8.2677Y-5.2283
M16
G05
G00X8.2677Y-5.7953
M15
G01X8.2677Y-5.8583
M16
G05
G00X8.4646Y-3.2756
M15
G01X8.4646Y-3.3386
M16
G05
G00X8.4646Y-3.9055
M15
G01X8.4646Y-3.9685
M16
G05
G00X8.4646Y-3.9055
M15
G01X8.4646Y-3.9685
M16
G05
G00X8.4646Y-4.5354
M15
G01X8.4646Y-4.5984
M16
G05
G00X8.4646Y-4.5354
M15
G01X8.4646Y-4.5984
M16
G05
G00X8.4646Y-5.1654
M15
G01X8.4646Y-5.2283
M16
G05
G00X8.4646Y-5.1654
M15
G01X8.4646Y-5.2283
M16
G05
G00X8.4646Y-5.7953
M15
G01X8.4646Y-5.8583
M16
G05
G00X8.6614Y-3.2756
M15
G01X8.6614Y-3.3386
M16
G05
G00X8.6614Y-3.9055
M15
G01X8.6614Y-3.9685
M16
G05
G00X8.6614Y-3.9055
M15
G01X8.6614Y-3.9685
M16
G05
G00X8.6614Y-4.5354
M15
G01X8.6614Y-4.5984
M16
G05
G00X8.6614Y-4.5354
M15
G01X8.6614Y-4.5984
M16
G05
G00X8.6614Y-5.1654
M15
G01X8.6614Y-5.2283
M16
G05
G00X8.6614Y-5.1654
M15
G01X8.6614Y-5.2283
M16
G05
G00X8.6614Y-5.7953
M15
G01X8.6614Y-5.8583
M16
G05
T0
M30
