%TF.GenerationSoftware,KiCad,Pcbnew,(6.0.1-0)*%
%TF.CreationDate,2022-02-14T11:55:45-05:00*%
%TF.ProjectId,nixie-tube-clock,6e697869-652d-4747-9562-652d636c6f63,rev?*%
%TF.SameCoordinates,Original*%
%TF.FileFunction,Paste,Bot*%
%TF.FilePolarity,Positive*%
%FSLAX46Y46*%
G04 Gerber Fmt 4.6, Leading zero omitted, Abs format (unit mm)*
G04 Created by KiCad (PCBNEW (6.0.1-0)) date 2022-02-14 11:55:45*
%MOMM*%
%LPD*%
G01*
G04 APERTURE LIST*
G04 Aperture macros list*
%AMRoundRect*
0 Rectangle with rounded corners*
0 $1 Rounding radius*
0 $2 $3 $4 $5 $6 $7 $8 $9 X,Y pos of 4 corners*
0 Add a 4 corners polygon primitive as box body*
4,1,4,$2,$3,$4,$5,$6,$7,$8,$9,$2,$3,0*
0 Add four circle primitives for the rounded corners*
1,1,$1+$1,$2,$3*
1,1,$1+$1,$4,$5*
1,1,$1+$1,$6,$7*
1,1,$1+$1,$8,$9*
0 Add four rect primitives between the rounded corners*
20,1,$1+$1,$2,$3,$4,$5,0*
20,1,$1+$1,$4,$5,$6,$7,0*
20,1,$1+$1,$6,$7,$8,$9,0*
20,1,$1+$1,$8,$9,$2,$3,0*%
G04 Aperture macros list end*
%ADD10RoundRect,0.175000X0.175000X0.675000X-0.175000X0.675000X-0.175000X-0.675000X0.175000X-0.675000X0*%
%ADD11RoundRect,0.175000X-0.175000X-0.675000X0.175000X-0.675000X0.175000X0.675000X-0.175000X0.675000X0*%
%ADD12RoundRect,0.250000X0.450000X-0.262500X0.450000X0.262500X-0.450000X0.262500X-0.450000X-0.262500X0*%
%ADD13RoundRect,0.250000X0.475000X-0.337500X0.475000X0.337500X-0.475000X0.337500X-0.475000X-0.337500X0*%
%ADD14RoundRect,0.250000X-0.450000X0.262500X-0.450000X-0.262500X0.450000X-0.262500X0.450000X0.262500X0*%
%ADD15R,1.300000X1.700000*%
%ADD16R,3.050000X2.750000*%
%ADD17R,2.200000X1.200000*%
%ADD18RoundRect,0.250000X-0.625000X0.312500X-0.625000X-0.312500X0.625000X-0.312500X0.625000X0.312500X0*%
%ADD19RoundRect,0.250000X0.475000X-0.250000X0.475000X0.250000X-0.475000X0.250000X-0.475000X-0.250000X0*%
%ADD20RoundRect,0.250000X0.262500X0.450000X-0.262500X0.450000X-0.262500X-0.450000X0.262500X-0.450000X0*%
%ADD21RoundRect,0.150000X0.150000X-0.825000X0.150000X0.825000X-0.150000X0.825000X-0.150000X-0.825000X0*%
%ADD22R,2.000000X1.500000*%
%ADD23R,2.000000X3.800000*%
%ADD24RoundRect,0.250000X-0.262500X-0.450000X0.262500X-0.450000X0.262500X0.450000X-0.262500X0.450000X0*%
%ADD25R,0.450000X1.500000*%
%ADD26RoundRect,0.250000X0.250000X0.475000X-0.250000X0.475000X-0.250000X-0.475000X0.250000X-0.475000X0*%
%ADD27RoundRect,0.243750X-0.243750X-0.456250X0.243750X-0.456250X0.243750X0.456250X-0.243750X0.456250X0*%
%ADD28RoundRect,0.150000X-0.150000X0.825000X-0.150000X-0.825000X0.150000X-0.825000X0.150000X0.825000X0*%
%ADD29R,5.080000X17.780000*%
%ADD30RoundRect,0.250000X-0.475000X0.337500X-0.475000X-0.337500X0.475000X-0.337500X0.475000X0.337500X0*%
%ADD31R,1.500000X0.450000*%
%ADD32R,2.500000X2.300000*%
%ADD33RoundRect,0.150000X0.150000X-0.587500X0.150000X0.587500X-0.150000X0.587500X-0.150000X-0.587500X0*%
%ADD34RoundRect,0.150000X0.512500X0.150000X-0.512500X0.150000X-0.512500X-0.150000X0.512500X-0.150000X0*%
%ADD35RoundRect,0.150000X-0.825000X-0.150000X0.825000X-0.150000X0.825000X0.150000X-0.825000X0.150000X0*%
%ADD36R,4.400000X3.300000*%
%ADD37R,6.200000X3.900000*%
G04 APERTURE END LIST*
D10*
%TO.C,IN-12A_2*%
X113649989Y-32799994D03*
D11*
X114919989Y-37199994D03*
D10*
X116189989Y-32799994D03*
D11*
X117459989Y-37199994D03*
D10*
X118729989Y-32799994D03*
D11*
X119999989Y-37199994D03*
D10*
X121269989Y-32799994D03*
D11*
X122539989Y-37199994D03*
D10*
X123809989Y-32799994D03*
D11*
X125079989Y-37199994D03*
D10*
X126349989Y-32799994D03*
D11*
X127619989Y-37199994D03*
%TD*%
D10*
%TO.C,IN-12A_3*%
X163650000Y-32800000D03*
D11*
X164920000Y-37200000D03*
D10*
X166190000Y-32800000D03*
D11*
X167460000Y-37200000D03*
D10*
X168730000Y-32800000D03*
D11*
X170000000Y-37200000D03*
D10*
X171270000Y-32800000D03*
D11*
X172540000Y-37200000D03*
D10*
X173810000Y-32800000D03*
D11*
X175080000Y-37200000D03*
D10*
X176350000Y-32800000D03*
D11*
X177620000Y-37200000D03*
%TD*%
D10*
%TO.C,IN-12A_1*%
X73649992Y-32799994D03*
D11*
X74919992Y-37199994D03*
D10*
X76189992Y-32799994D03*
D11*
X77459992Y-37199994D03*
D10*
X78729992Y-32799994D03*
D11*
X79999992Y-37199994D03*
D10*
X81269992Y-32799994D03*
D11*
X82539992Y-37199994D03*
D10*
X83809992Y-32799994D03*
D11*
X85079992Y-37199994D03*
D10*
X86349992Y-32799994D03*
D11*
X87619992Y-37199994D03*
%TD*%
D10*
%TO.C,IN-12A_4*%
X203650012Y-32799994D03*
D11*
X204920012Y-37199994D03*
D10*
X206190012Y-32799994D03*
D11*
X207460012Y-37199994D03*
D10*
X208730012Y-32799994D03*
D11*
X210000012Y-37199994D03*
D10*
X211270012Y-32799994D03*
D11*
X212540012Y-37199994D03*
D10*
X213810012Y-32799994D03*
D11*
X215080012Y-37199994D03*
D10*
X216350012Y-32799994D03*
D11*
X217620012Y-37199994D03*
%TD*%
D12*
%TO.C,R13*%
X125730000Y-153693500D03*
X125730000Y-151868500D03*
%TD*%
D13*
%TO.C,C2*%
X197678000Y-114146000D03*
X197678000Y-112071000D03*
%TD*%
D14*
%TO.C,R24*%
X105410000Y-126722500D03*
X105410000Y-128547500D03*
%TD*%
D15*
%TO.C,D2*%
X175608000Y-118823500D03*
X179108000Y-118823500D03*
%TD*%
D14*
%TO.C,R8*%
X146304000Y-86463500D03*
X146304000Y-88288500D03*
%TD*%
%TO.C,R2*%
X183708000Y-116641000D03*
X183708000Y-118466000D03*
%TD*%
D16*
%TO.C,Q1*%
X167408000Y-115393500D03*
X167408000Y-118443500D03*
X164058000Y-118443500D03*
X164058000Y-115393500D03*
D17*
X172033000Y-114638500D03*
X172033000Y-119198500D03*
%TD*%
D18*
%TO.C,R47*%
X113665000Y-27112500D03*
X113665000Y-30037500D03*
%TD*%
D13*
%TO.C,C3*%
X195138000Y-114146000D03*
X195138000Y-112071000D03*
%TD*%
D19*
%TO.C,C26*%
X99695000Y-137475000D03*
X99695000Y-135575000D03*
%TD*%
D20*
%TO.C,R71*%
X214018500Y-49784000D03*
X212193500Y-49784000D03*
%TD*%
D12*
%TO.C,R63*%
X163195000Y-51712500D03*
X163195000Y-49887500D03*
%TD*%
D19*
%TO.C,C24*%
X99695000Y-105725000D03*
X99695000Y-103825000D03*
%TD*%
D21*
%TO.C,U5*%
X93345000Y-65467000D03*
X92075000Y-65467000D03*
X90805000Y-65467000D03*
X89535000Y-65467000D03*
X88265000Y-65467000D03*
X86995000Y-65467000D03*
X85725000Y-65467000D03*
X84455000Y-65467000D03*
X84455000Y-60517000D03*
X85725000Y-60517000D03*
X86995000Y-60517000D03*
X88265000Y-60517000D03*
X89535000Y-60517000D03*
X90805000Y-60517000D03*
X92075000Y-60517000D03*
X93345000Y-60517000D03*
%TD*%
D12*
%TO.C,R11*%
X148844000Y-88288500D03*
X148844000Y-86463500D03*
%TD*%
D22*
%TO.C,Q50*%
X90780000Y-137400000D03*
D23*
X84480000Y-139700000D03*
D22*
X90780006Y-139700000D03*
X90780000Y-142000000D03*
%TD*%
D12*
%TO.C,R54*%
X106680000Y-51712500D03*
X106680000Y-49887500D03*
%TD*%
%TO.C,R23*%
X105410000Y-153693500D03*
X105410000Y-151868500D03*
%TD*%
D20*
%TO.C,R60*%
X173886500Y-49784000D03*
X172061500Y-49784000D03*
%TD*%
D24*
%TO.C,R92*%
X94591500Y-142240000D03*
X96416500Y-142240000D03*
%TD*%
D20*
%TO.C,R49*%
X123902801Y-49576915D03*
X122077801Y-49576915D03*
%TD*%
D25*
%TO.C,Q26*%
X106695000Y-47050000D03*
X105395000Y-47050000D03*
X106045000Y-44390000D03*
%TD*%
%TO.C,Q17*%
X135270000Y-47050000D03*
X133970000Y-47050000D03*
X134620000Y-44390000D03*
%TD*%
D12*
%TO.C,R62*%
X166370000Y-51712500D03*
X166370000Y-49887500D03*
%TD*%
D25*
%TO.C,Q19*%
X128920000Y-47050000D03*
X127620000Y-47050000D03*
X128270000Y-44390000D03*
%TD*%
D12*
%TO.C,R43*%
X66675000Y-51712500D03*
X66675000Y-49887500D03*
%TD*%
D22*
%TO.C,Q48*%
X90780000Y-105650000D03*
D23*
X84480000Y-107950000D03*
D22*
X90780006Y-107950000D03*
X90780000Y-110250000D03*
%TD*%
D20*
%TO.C,R6*%
X142748000Y-83312000D03*
X140923000Y-83312000D03*
%TD*%
D12*
%TO.C,R19*%
X118237000Y-128547500D03*
X118237000Y-126722500D03*
%TD*%
D25*
%TO.C,Q35*%
X160035000Y-47050000D03*
X158735000Y-47050000D03*
X159385000Y-44390000D03*
%TD*%
D12*
%TO.C,R67*%
X222250000Y-51712500D03*
X222250000Y-49887500D03*
%TD*%
%TO.C,R52*%
X113030000Y-51712500D03*
X113030000Y-49887500D03*
%TD*%
%TO.C,R74*%
X203200000Y-51712500D03*
X203200000Y-49887500D03*
%TD*%
D19*
%TO.C,C20*%
X153670000Y-65278000D03*
X153670000Y-63378000D03*
%TD*%
D12*
%TO.C,R59*%
X175895000Y-51712500D03*
X175895000Y-49887500D03*
%TD*%
D26*
%TO.C,C10*%
X138872000Y-127889000D03*
X136972000Y-127889000D03*
%TD*%
D25*
%TO.C,Q45*%
X200040000Y-47050000D03*
X198740000Y-47050000D03*
X199390000Y-44390000D03*
%TD*%
D27*
%TO.C,D7*%
X131062500Y-104775000D03*
X132937500Y-104775000D03*
%TD*%
D25*
%TO.C,Q36*%
X156860000Y-47050000D03*
X155560000Y-47050000D03*
X156210000Y-44390000D03*
%TD*%
%TO.C,Q11*%
X82565000Y-47050000D03*
X81265000Y-47050000D03*
X81915000Y-44390000D03*
%TD*%
%TO.C,Q25*%
X109870000Y-47050000D03*
X108570000Y-47050000D03*
X109220000Y-44390000D03*
%TD*%
D12*
%TO.C,R7*%
X191963000Y-110846000D03*
X191963000Y-109021000D03*
%TD*%
D25*
%TO.C,Q38*%
X222265000Y-47050000D03*
X220965000Y-47050000D03*
X221615000Y-44390000D03*
%TD*%
D26*
%TO.C,C11*%
X138872000Y-125349000D03*
X136972000Y-125349000D03*
%TD*%
D25*
%TO.C,Q22*%
X119395000Y-47050000D03*
X118095000Y-47050000D03*
X118745000Y-44390000D03*
%TD*%
%TO.C,Q7*%
X95265000Y-47050000D03*
X93965000Y-47050000D03*
X94615000Y-44390000D03*
%TD*%
%TO.C,Q8*%
X92090000Y-47050000D03*
X90790000Y-47050000D03*
X91440000Y-44390000D03*
%TD*%
D14*
%TO.C,R89*%
X94615000Y-135612500D03*
X94615000Y-137437500D03*
%TD*%
D25*
%TO.C,Q46*%
X196865000Y-47050000D03*
X195565000Y-47050000D03*
X196215000Y-44390000D03*
%TD*%
%TO.C,Q16*%
X66690000Y-47050000D03*
X65390000Y-47050000D03*
X66040000Y-44390000D03*
%TD*%
%TO.C,Q3*%
X143525000Y-52330000D03*
X142225000Y-52330000D03*
X142875000Y-49670000D03*
%TD*%
D12*
%TO.C,R25*%
X147320000Y-51412500D03*
X147320000Y-49587500D03*
%TD*%
D28*
%TO.C,U8*%
X106680000Y-60263000D03*
X107950000Y-60263000D03*
X109220000Y-60263000D03*
X110490000Y-60263000D03*
X111760000Y-60263000D03*
X113030000Y-60263000D03*
X114300000Y-60263000D03*
X115570000Y-60263000D03*
X115570000Y-65213000D03*
X114300000Y-65213000D03*
X113030000Y-65213000D03*
X111760000Y-65213000D03*
X110490000Y-65213000D03*
X109220000Y-65213000D03*
X107950000Y-65213000D03*
X106680000Y-65213000D03*
%TD*%
D12*
%TO.C,R41*%
X73025000Y-51712500D03*
X73025000Y-49887500D03*
%TD*%
D19*
%TO.C,C18*%
X103505000Y-65278000D03*
X103505000Y-63378000D03*
%TD*%
D12*
%TO.C,R56*%
X182245000Y-51712500D03*
X182245000Y-49887500D03*
%TD*%
D14*
%TO.C,R82*%
X97155000Y-103862500D03*
X97155000Y-105687500D03*
%TD*%
D18*
%TO.C,R58*%
X163830000Y-27112500D03*
X163830000Y-30037500D03*
%TD*%
D15*
%TO.C,D3*%
X142748000Y-80264000D03*
X139248000Y-80264000D03*
%TD*%
D19*
%TO.C,C15*%
X96520000Y-60452000D03*
X96520000Y-58552000D03*
%TD*%
D12*
%TO.C,R37*%
X85725000Y-51712500D03*
X85725000Y-49887500D03*
%TD*%
D25*
%TO.C,Q12*%
X79390000Y-47050000D03*
X78090000Y-47050000D03*
X78740000Y-44390000D03*
%TD*%
%TO.C,Q37*%
X225440000Y-47050000D03*
X224140000Y-47050000D03*
X224790000Y-44390000D03*
%TD*%
%TO.C,Q43*%
X206390000Y-47050000D03*
X205090000Y-47050000D03*
X205740000Y-44390000D03*
%TD*%
D19*
%TO.C,C17*%
X136525000Y-60198000D03*
X136525000Y-58298000D03*
%TD*%
D12*
%TO.C,R18*%
X118110000Y-153693500D03*
X118110000Y-151868500D03*
%TD*%
D20*
%TO.C,R50*%
X120289627Y-49650000D03*
X118464627Y-49650000D03*
%TD*%
D12*
%TO.C,R83*%
X56515000Y-104521000D03*
X56515000Y-102696000D03*
%TD*%
D22*
%TO.C,Q49*%
X90780000Y-121525000D03*
D23*
X84480000Y-123825000D03*
D22*
X90780006Y-123825000D03*
X90780000Y-126125000D03*
%TD*%
D25*
%TO.C,Q27*%
X185435000Y-47050000D03*
X184135000Y-47050000D03*
X184785000Y-44390000D03*
%TD*%
D12*
%TO.C,R51*%
X116205000Y-51712500D03*
X116205000Y-49887500D03*
%TD*%
D29*
%TO.C,L1*%
X193233000Y-137873500D03*
X165293000Y-137873500D03*
%TD*%
D21*
%TO.C,U9*%
X183515000Y-65213000D03*
X182245000Y-65213000D03*
X180975000Y-65213000D03*
X179705000Y-65213000D03*
X178435000Y-65213000D03*
X177165000Y-65213000D03*
X175895000Y-65213000D03*
X174625000Y-65213000D03*
X174625000Y-60263000D03*
X175895000Y-60263000D03*
X177165000Y-60263000D03*
X178435000Y-60263000D03*
X179705000Y-60263000D03*
X180975000Y-60263000D03*
X182245000Y-60263000D03*
X183515000Y-60263000D03*
%TD*%
D12*
%TO.C,R46*%
X128905000Y-51712500D03*
X128905000Y-49887500D03*
%TD*%
D14*
%TO.C,R90*%
X97155000Y-135612500D03*
X97155000Y-137437500D03*
%TD*%
D13*
%TO.C,C4*%
X183708000Y-114146000D03*
X183708000Y-112071000D03*
%TD*%
D19*
%TO.C,C23*%
X99670000Y-89850000D03*
X99670000Y-87950000D03*
%TD*%
D25*
%TO.C,Q24*%
X113045000Y-47050000D03*
X111745000Y-47050000D03*
X112395000Y-44390000D03*
%TD*%
D12*
%TO.C,R55*%
X185420000Y-51712500D03*
X185420000Y-49887500D03*
%TD*%
D25*
%TO.C,Q42*%
X209565000Y-47050000D03*
X208265000Y-47050000D03*
X208915000Y-44390000D03*
%TD*%
D12*
%TO.C,R68*%
X219075000Y-51712500D03*
X219075000Y-49887500D03*
%TD*%
D25*
%TO.C,Q14*%
X73040000Y-47050000D03*
X71740000Y-47050000D03*
X72390000Y-44390000D03*
%TD*%
D12*
%TO.C,R76*%
X196850000Y-51712500D03*
X196850000Y-49887500D03*
%TD*%
%TO.C,R75*%
X200025000Y-51712500D03*
X200025000Y-49887500D03*
%TD*%
%TO.C,R44*%
X135255000Y-51712500D03*
X135255000Y-49887500D03*
%TD*%
D30*
%TO.C,C9*%
X186883000Y-108896000D03*
X186883000Y-110971000D03*
%TD*%
D25*
%TO.C,Q10*%
X85740000Y-47050000D03*
X84440000Y-47050000D03*
X85090000Y-44390000D03*
%TD*%
%TO.C,Q44*%
X203215000Y-47050000D03*
X201915000Y-47050000D03*
X202565000Y-44390000D03*
%TD*%
D12*
%TO.C,R20*%
X113030000Y-153693500D03*
X113030000Y-151868500D03*
%TD*%
%TO.C,R66*%
X225425000Y-51712500D03*
X225425000Y-49887500D03*
%TD*%
D31*
%TO.C,Q5*%
X137160000Y-100315000D03*
X137160000Y-101615000D03*
X134500000Y-100965000D03*
%TD*%
D12*
%TO.C,R48*%
X125730000Y-51712500D03*
X125730000Y-49887500D03*
%TD*%
%TO.C,R35*%
X88900000Y-51712500D03*
X88900000Y-49887500D03*
%TD*%
D25*
%TO.C,Q15*%
X69865000Y-46990000D03*
X68565000Y-46990000D03*
X69215000Y-44330000D03*
%TD*%
%TO.C,Q18*%
X132095000Y-47050000D03*
X130795000Y-47050000D03*
X131445000Y-44390000D03*
%TD*%
D19*
%TO.C,C25*%
X99695000Y-121280000D03*
X99695000Y-119380000D03*
%TD*%
D14*
%TO.C,R5*%
X189423000Y-109021000D03*
X189423000Y-110846000D03*
%TD*%
D20*
%TO.C,R10*%
X137564500Y-88288500D03*
X135739500Y-88288500D03*
%TD*%
D12*
%TO.C,R87*%
X56515000Y-120523000D03*
X56515000Y-118698000D03*
%TD*%
D25*
%TO.C,Q9*%
X88915000Y-47050000D03*
X87615000Y-47050000D03*
X88265000Y-44390000D03*
%TD*%
D12*
%TO.C,R16*%
X120650000Y-153693500D03*
X120650000Y-151868500D03*
%TD*%
D14*
%TO.C,R86*%
X97155000Y-119460000D03*
X97155000Y-121285000D03*
%TD*%
%TO.C,TH1*%
X157226000Y-124460000D03*
X157226000Y-126285000D03*
%TD*%
D12*
%TO.C,R73*%
X206375000Y-51712500D03*
X206375000Y-49887500D03*
%TD*%
D25*
%TO.C,Q41*%
X212740000Y-47050000D03*
X211440000Y-47050000D03*
X212090000Y-44390000D03*
%TD*%
D14*
%TO.C,R77*%
X94590000Y-87987500D03*
X94590000Y-89812500D03*
%TD*%
%TO.C,R9*%
X157226000Y-120570000D03*
X157226000Y-122395000D03*
%TD*%
%TO.C,R3*%
X174183000Y-108028500D03*
X174183000Y-109853500D03*
%TD*%
D28*
%TO.C,U10*%
X156845000Y-60263000D03*
X158115000Y-60263000D03*
X159385000Y-60263000D03*
X160655000Y-60263000D03*
X161925000Y-60263000D03*
X163195000Y-60263000D03*
X164465000Y-60263000D03*
X165735000Y-60263000D03*
X165735000Y-65213000D03*
X164465000Y-65213000D03*
X163195000Y-65213000D03*
X161925000Y-65213000D03*
X160655000Y-65213000D03*
X159385000Y-65213000D03*
X158115000Y-65213000D03*
X156845000Y-65213000D03*
%TD*%
D21*
%TO.C,U7*%
X133350000Y-65213000D03*
X132080000Y-65213000D03*
X130810000Y-65213000D03*
X129540000Y-65213000D03*
X128270000Y-65213000D03*
X127000000Y-65213000D03*
X125730000Y-65213000D03*
X124460000Y-65213000D03*
X124460000Y-60263000D03*
X125730000Y-60263000D03*
X127000000Y-60263000D03*
X128270000Y-60263000D03*
X129540000Y-60263000D03*
X130810000Y-60263000D03*
X132080000Y-60263000D03*
X133350000Y-60263000D03*
%TD*%
D32*
%TO.C,D1*%
X169983000Y-108028500D03*
X165683000Y-108028500D03*
%TD*%
D18*
%TO.C,R36*%
X73660000Y-27112500D03*
X73660000Y-30037500D03*
%TD*%
D25*
%TO.C,Q29*%
X179085000Y-47050000D03*
X177785000Y-47050000D03*
X178435000Y-44390000D03*
%TD*%
D33*
%TO.C,Q2*%
X178308000Y-115316000D03*
X176408000Y-115316000D03*
X177358000Y-113441000D03*
%TD*%
D24*
%TO.C,R30*%
X141605000Y-73660000D03*
X143430000Y-73660000D03*
%TD*%
D25*
%TO.C,Q13*%
X76215000Y-47050000D03*
X74915000Y-47050000D03*
X75565000Y-44390000D03*
%TD*%
D12*
%TO.C,R12*%
X128270000Y-153693500D03*
X128270000Y-151868500D03*
%TD*%
%TO.C,R40*%
X76200000Y-51712500D03*
X76200000Y-49887500D03*
%TD*%
D25*
%TO.C,Q23*%
X116220000Y-47050000D03*
X114920000Y-47050000D03*
X115570000Y-44390000D03*
%TD*%
%TO.C,Q30*%
X175910000Y-47050000D03*
X174610000Y-47050000D03*
X175260000Y-44390000D03*
%TD*%
D31*
%TO.C,Q6*%
X137220000Y-92060000D03*
X137220000Y-93360000D03*
X134560000Y-92710000D03*
%TD*%
D12*
%TO.C,R34*%
X92075000Y-51712500D03*
X92075000Y-49887500D03*
%TD*%
%TO.C,R31*%
X140335000Y-102155000D03*
X140335000Y-100330000D03*
%TD*%
%TO.C,R17*%
X120777000Y-128547500D03*
X120777000Y-126722500D03*
%TD*%
D21*
%TO.C,U11*%
X223520000Y-65188578D03*
X222250000Y-65188578D03*
X220980000Y-65188578D03*
X219710000Y-65188578D03*
X218440000Y-65188578D03*
X217170000Y-65188578D03*
X215900000Y-65188578D03*
X214630000Y-65188578D03*
X214630000Y-60238578D03*
X215900000Y-60238578D03*
X217170000Y-60238578D03*
X218440000Y-60238578D03*
X219710000Y-60238578D03*
X220980000Y-60238578D03*
X222250000Y-60238578D03*
X223520000Y-60238578D03*
%TD*%
D24*
%TO.C,R84*%
X94488000Y-110490000D03*
X96313000Y-110490000D03*
%TD*%
D12*
%TO.C,R91*%
X56515000Y-136525000D03*
X56515000Y-134700000D03*
%TD*%
D20*
%TO.C,R4*%
X147113000Y-83312000D03*
X145288000Y-83312000D03*
%TD*%
D12*
%TO.C,R26*%
X147320000Y-69770000D03*
X147320000Y-67945000D03*
%TD*%
D25*
%TO.C,Q31*%
X172735000Y-47050000D03*
X171435000Y-47050000D03*
X172085000Y-44390000D03*
%TD*%
%TO.C,Q4*%
X143525000Y-70545000D03*
X142225000Y-70545000D03*
X142875000Y-67885000D03*
%TD*%
%TO.C,Q34*%
X163210000Y-47050000D03*
X161910000Y-47050000D03*
X162560000Y-44390000D03*
%TD*%
D19*
%TO.C,C16*%
X63500000Y-65532000D03*
X63500000Y-63632000D03*
%TD*%
D34*
%TO.C,U2*%
X142887500Y-86388500D03*
X142887500Y-87338500D03*
X142887500Y-88288500D03*
X140612500Y-88288500D03*
X140612500Y-86388500D03*
%TD*%
D12*
%TO.C,R32*%
X140335000Y-93980000D03*
X140335000Y-92155000D03*
%TD*%
D35*
%TO.C,U1*%
X186948000Y-116918500D03*
X186948000Y-115648500D03*
X186948000Y-114378500D03*
X186948000Y-113108500D03*
X191898000Y-113108500D03*
X191898000Y-114378500D03*
X191898000Y-115648500D03*
X191898000Y-116918500D03*
%TD*%
D12*
%TO.C,R65*%
X156845000Y-51712500D03*
X156845000Y-49887500D03*
%TD*%
D25*
%TO.C,Q39*%
X219090000Y-47050000D03*
X217790000Y-47050000D03*
X218440000Y-44390000D03*
%TD*%
D12*
%TO.C,R57*%
X179070000Y-51712500D03*
X179070000Y-49887500D03*
%TD*%
D19*
%TO.C,C21*%
X226695000Y-60173578D03*
X226695000Y-58273578D03*
%TD*%
D24*
%TO.C,R80*%
X94488000Y-94615000D03*
X96313000Y-94615000D03*
%TD*%
%TO.C,R1*%
X191770000Y-119458500D03*
X193595000Y-119458500D03*
%TD*%
D16*
%TO.C,U4*%
X129330000Y-114299000D03*
X132680000Y-117349000D03*
X129330000Y-117349000D03*
X132680000Y-114299000D03*
D17*
X124705000Y-118104000D03*
X124705000Y-113544000D03*
%TD*%
D36*
%TO.C,J1*%
X224070000Y-123255000D03*
D37*
X233070000Y-116105000D03*
X233070000Y-129005000D03*
%TD*%
D12*
%TO.C,R70*%
X215900000Y-51712500D03*
X215900000Y-49887500D03*
%TD*%
D20*
%TO.C,R27*%
X137437500Y-104775000D03*
X135612500Y-104775000D03*
%TD*%
D26*
%TO.C,C12*%
X135890000Y-152781000D03*
X133990000Y-152781000D03*
%TD*%
D27*
%TO.C,D4*%
X131142500Y-88288500D03*
X133017500Y-88288500D03*
%TD*%
D20*
%TO.C,R72*%
X210208500Y-49784000D03*
X208383500Y-49784000D03*
%TD*%
D25*
%TO.C,Q28*%
X182260000Y-47050000D03*
X180960000Y-47050000D03*
X181610000Y-44390000D03*
%TD*%
D24*
%TO.C,R88*%
X94591500Y-126492000D03*
X96416500Y-126492000D03*
%TD*%
D12*
%TO.C,R64*%
X160020000Y-51712500D03*
X160020000Y-49887500D03*
%TD*%
D28*
%TO.C,U12*%
X196850000Y-60238578D03*
X198120000Y-60238578D03*
X199390000Y-60238578D03*
X200660000Y-60238578D03*
X201930000Y-60238578D03*
X203200000Y-60238578D03*
X204470000Y-60238578D03*
X205740000Y-60238578D03*
X205740000Y-65188578D03*
X204470000Y-65188578D03*
X203200000Y-65188578D03*
X201930000Y-65188578D03*
X200660000Y-65188578D03*
X199390000Y-65188578D03*
X198120000Y-65188578D03*
X196850000Y-65188578D03*
%TD*%
D20*
%TO.C,R61*%
X170330500Y-49784000D03*
X168505500Y-49784000D03*
%TD*%
D19*
%TO.C,C19*%
X186690000Y-60198000D03*
X186690000Y-58298000D03*
%TD*%
D20*
%TO.C,R38*%
X83625814Y-49616718D03*
X81800814Y-49616718D03*
%TD*%
D12*
%TO.C,R79*%
X56515000Y-88542500D03*
X56515000Y-86717500D03*
%TD*%
D25*
%TO.C,Q21*%
X122570000Y-47050000D03*
X121270000Y-47050000D03*
X121920000Y-44390000D03*
%TD*%
D28*
%TO.C,U6*%
X66675000Y-60517000D03*
X67945000Y-60517000D03*
X69215000Y-60517000D03*
X70485000Y-60517000D03*
X71755000Y-60517000D03*
X73025000Y-60517000D03*
X74295000Y-60517000D03*
X75565000Y-60517000D03*
X75565000Y-65467000D03*
X74295000Y-65467000D03*
X73025000Y-65467000D03*
X71755000Y-65467000D03*
X70485000Y-65467000D03*
X69215000Y-65467000D03*
X67945000Y-65467000D03*
X66675000Y-65467000D03*
%TD*%
D14*
%TO.C,R22*%
X107950000Y-126722500D03*
X107950000Y-128547500D03*
%TD*%
D25*
%TO.C,Q40*%
X215915000Y-47050000D03*
X214615000Y-47050000D03*
X215265000Y-44390000D03*
%TD*%
D12*
%TO.C,R21*%
X110490000Y-153693500D03*
X110490000Y-151868500D03*
%TD*%
%TO.C,R15*%
X123317000Y-128547500D03*
X123317000Y-126722500D03*
%TD*%
%TO.C,R42*%
X69850000Y-51712500D03*
X69850000Y-49887500D03*
%TD*%
%TO.C,R14*%
X123190000Y-153693500D03*
X123190000Y-151868500D03*
%TD*%
%TO.C,R53*%
X109855000Y-51712500D03*
X109855000Y-49887500D03*
%TD*%
D18*
%TO.C,R69*%
X203835000Y-27112500D03*
X203835000Y-30037500D03*
%TD*%
D14*
%TO.C,R85*%
X94615000Y-119460000D03*
X94615000Y-121285000D03*
%TD*%
D20*
%TO.C,R39*%
X80062976Y-49652828D03*
X78237976Y-49652828D03*
%TD*%
D25*
%TO.C,Q32*%
X169560000Y-47050000D03*
X168260000Y-47050000D03*
X168910000Y-44390000D03*
%TD*%
D27*
%TO.C,D8*%
X131142500Y-96520000D03*
X133017500Y-96520000D03*
%TD*%
D19*
%TO.C,C22*%
X193675000Y-65253578D03*
X193675000Y-63353578D03*
%TD*%
D20*
%TO.C,R28*%
X137564500Y-96520000D03*
X135739500Y-96520000D03*
%TD*%
D25*
%TO.C,Q33*%
X166385000Y-47050000D03*
X165085000Y-47050000D03*
X165735000Y-44390000D03*
%TD*%
D12*
%TO.C,R33*%
X95250000Y-51712500D03*
X95250000Y-49887500D03*
%TD*%
D14*
%TO.C,R81*%
X94615000Y-103862500D03*
X94615000Y-105687500D03*
%TD*%
D25*
%TO.C,Q20*%
X125745000Y-47050000D03*
X124445000Y-47050000D03*
X125095000Y-44390000D03*
%TD*%
D22*
%TO.C,Q47*%
X90780000Y-89775000D03*
D23*
X84480000Y-92075000D03*
D22*
X90780006Y-92075000D03*
X90780000Y-94375000D03*
%TD*%
D24*
%TO.C,R29*%
X141685000Y-55000000D03*
X143510000Y-55000000D03*
%TD*%
D14*
%TO.C,R78*%
X97130000Y-87987500D03*
X97130000Y-89812500D03*
%TD*%
D12*
%TO.C,R45*%
X132080000Y-51712500D03*
X132080000Y-49887500D03*
%TD*%
M02*
