M48
; DRILL file {KiCad (6.0.1-0)} date Monday, February 14, 2022 at 11:55:48 AM
; FORMAT={-:-/ absolute / inch / decimal}
; #@! TF.CreationDate,2022-02-14T11:55:48-05:00
; #@! TF.GenerationSoftware,Kicad,Pcbnew,(6.0.1-0)
; #@! TF.FileFunction,Plated,1,4,PTH
FMAT,2
INCH
; #@! TA.AperFunction,Plated,PTH,ViaDrill
T1C0.0150
; #@! TA.AperFunction,Plated,PTH,ComponentDrill
T2C0.0236
; #@! TA.AperFunction,Plated,PTH,ComponentDrill
T3C0.0256
; #@! TA.AperFunction,Plated,PTH,ComponentDrill
T4C0.0315
; #@! TA.AperFunction,Plated,PTH,ComponentDrill
T5C0.0354
; #@! TA.AperFunction,Plated,PTH,ComponentDrill
T6C0.0394
; #@! TA.AperFunction,Plated,PTH,ComponentDrill
T7C0.0689
; #@! TA.AperFunction,Plated,PTH,ComponentDrill
T8C0.1500
%
G90
G05
T1
X2.225Y-3.382
X2.225Y-4.012
X2.225Y-4.641
X2.225Y-5.271
X2.46Y-2.58
X2.5Y-2.475
X2.5744Y-1.9006
X2.675Y-2.52
X2.6994Y-1.8982
X2.725Y-2.52
X2.75Y-2.0805
X2.775Y-2.6349
X2.8244Y-1.9006
X2.825Y-2.6349
X2.875Y-2.08
X2.875Y-2.6349
X2.925Y-2.6349
X2.9494Y-1.9006
X2.975Y-2.3251
X3.0Y-2.08
X3.04Y-2.52
X3.068Y-2.398
X3.0744Y-1.9006
X3.1994Y-1.9006
X3.25Y-2.02
X3.2865Y-1.9957
X3.3244Y-1.9006
X3.325Y-2.52
X3.375Y-2.08
X3.375Y-2.52
X3.425Y-2.52
X3.4494Y-1.9006
X3.475Y-2.52
X3.5Y-2.08
X3.525Y-2.52
X3.5744Y-1.9006
X3.575Y-2.52
X3.625Y-2.08
X3.625Y-2.52
X3.675Y-2.52
X3.6994Y-1.9006
X3.8Y-2.275
X3.82Y-2.62
X3.823Y-3.725
X3.824Y-4.35
X3.824Y-3.4095
X3.825Y-4.0345
X3.825Y-4.6496
X3.825Y-5.285
X3.828Y-4.98
X3.828Y-5.6
X3.84Y-2.38
X3.924Y-3.431
X3.925Y-4.056
X3.925Y-4.6684
X3.925Y-5.306
X3.97Y-2.47
X4.0348Y-2.4952
X4.035Y-2.57
X4.1494Y-1.9006
X4.15Y-4.94
X4.2Y-4.8
X4.22Y-4.675
X4.25Y-2.51
X4.25Y-4.9405
X4.2744Y-1.9006
X4.29Y-4.725
X4.3Y-2.51
X4.325Y-2.0805
X4.3994Y-1.9006
X4.45Y-2.08
X4.5244Y-1.9006
X4.55Y-2.3151
X4.575Y-2.08
X4.6494Y-1.9006
X4.65Y-6.1
X4.655Y-4.9395
X4.695Y-2.51
X4.75Y-6.0995
X4.755Y-4.9395
X4.7744Y-1.9006
X4.83Y-2.02
X4.84Y-4.63
X4.84Y-4.67
X4.85Y-6.0995
X4.855Y-4.9395
X4.8754Y-1.9941
X4.8994Y-1.9006
X4.9Y-2.51
X4.95Y-2.0805
X4.95Y-2.51
X4.95Y-6.1005
X5.0Y-2.51
X5.0244Y-1.9006
X5.05Y-2.51
X5.075Y-2.0805
X5.1Y-2.51
X5.1315Y-3.4759
X5.1494Y-1.9006
X5.15Y-2.51
X5.2Y-2.0841
X5.2Y-2.51
X5.2436Y-6.015
X5.25Y-2.51
X5.2744Y-1.9006
X5.32Y-2.37
X5.361Y-4.935
X5.361Y-5.035
X5.375Y-2.265
X5.39Y-4.25
X5.443Y-4.125
X5.445Y-3.16
X5.447Y-4.0006
X5.448Y-3.8
X5.4494Y-3.6756
X5.495Y-2.9
X5.5043Y-3.4011
X5.515Y-3.28
X5.535Y-2.165
X5.6Y-2.11
X5.6Y-2.83
X5.665Y-3.4385
X5.76Y-3.373
X5.8Y-2.0552
X5.8Y-2.779
X5.86Y-3.373
X6.01Y-2.57
X6.05Y-2.465
X6.1244Y-1.9006
X6.19Y-4.67
X6.19Y-5.004
X6.225Y-2.51
X6.2494Y-1.9006
X6.275Y-2.51
X6.3Y-2.0805
X6.3744Y-1.9006
X6.425Y-2.0805
X6.4994Y-1.9006
X6.525Y-2.3151
X6.55Y-2.08
X6.6244Y-1.9006
X6.68Y-2.51
X6.68Y-2.75
X6.7494Y-1.9006
X6.78Y-2.02
X6.835Y-4.67
X6.835Y-4.715
X6.8464Y-1.9998
X6.8576Y-4.357
X6.8744Y-1.9006
X6.875Y-2.51
X6.925Y-2.0805
X6.925Y-2.51
X6.975Y-2.51
X6.9826Y-4.4226
X6.9994Y-1.9006
X7.025Y-2.51
X7.05Y-2.0805
X7.075Y-2.51
X7.1244Y-1.9006
X7.125Y-2.51
X7.175Y-2.0805
X7.175Y-2.51
X7.225Y-2.51
X7.2326Y-4.3772
X7.2326Y-4.6961
X7.2494Y-1.9006
X7.253Y-2.176
X7.35Y-2.265
X7.3576Y-4.4006
X7.39Y-2.37
X7.4119Y-4.4531
X7.5576Y-4.261
X7.56Y-3.63
X7.585Y-2.4942
X7.585Y-2.569
X7.6826Y-4.3806
X7.6994Y-1.9006
X7.7826Y-4.3806
X7.8Y-2.509
X7.8244Y-1.9006
X7.85Y-2.509
X7.875Y-2.08
X7.9494Y-1.9006
X8.0Y-2.0795
X8.0744Y-1.9006
X8.1Y-2.3142
X8.125Y-2.08
X8.1994Y-1.9006
X8.265Y-2.509
X8.31Y-2.0041
X8.3244Y-1.9006
X8.4254Y-2.0041
X8.4494Y-1.9006
X8.45Y-2.509
X8.5Y-2.08
X8.5Y-2.509
X8.55Y-2.509
X8.5744Y-1.9006
X8.59Y-4.8
X8.59Y-4.85
X8.59Y-4.9
X8.6Y-2.509
X8.625Y-2.08
X8.65Y-2.509
X8.65Y-4.8
X8.65Y-4.85
X8.65Y-4.9
X8.6994Y-1.9006
X8.7Y-2.509
X8.75Y-2.08
X8.75Y-2.509
X8.8Y-2.509
X8.8244Y-1.9006
X8.925Y-2.264
X8.965Y-2.369
X9.075Y-4.4
X9.075Y-4.475
X9.075Y-4.675
X9.175Y-4.4
X9.175Y-4.475
X9.175Y-4.675
X9.275Y-4.4
X9.275Y-4.475
X9.275Y-4.675
T2
X4.6709Y-4.555
X4.73Y-4.555
X5.45Y-4.535
X5.45Y-4.5941
T3
X2.8996Y-1.378
X2.9496Y-1.378
X2.9996Y-1.378
X3.0496Y-1.378
X3.0996Y-1.378
X3.1496Y-1.378
X3.1996Y-1.378
X3.2496Y-1.378
X3.2996Y-1.378
X3.3496Y-1.378
X3.3996Y-1.378
X3.4496Y-1.378
X4.4744Y-1.378
X4.5244Y-1.378
X4.5744Y-1.378
X4.6244Y-1.378
X4.6744Y-1.378
X4.7244Y-1.378
X4.7744Y-1.378
X4.8244Y-1.378
X4.8744Y-1.378
X4.9244Y-1.378
X4.9744Y-1.378
X5.0244Y-1.378
X6.4429Y-1.378
X6.4929Y-1.378
X6.5429Y-1.378
X6.5929Y-1.378
X6.6429Y-1.378
X6.6929Y-1.378
X6.7429Y-1.378
X6.7929Y-1.378
X6.8429Y-1.378
X6.8929Y-1.378
X6.9429Y-1.378
X6.9929Y-1.378
X8.0177Y-1.378
X8.0677Y-1.378
X8.1177Y-1.378
X8.1677Y-1.378
X8.2177Y-1.378
X8.2677Y-1.378
X8.3177Y-1.378
X8.3677Y-1.378
X8.4177Y-1.378
X8.4677Y-1.378
X8.5177Y-1.378
X8.5677Y-1.378
T4
X7.9445Y-4.5481
X8.0429Y-4.5481
T5
X5.6585Y-1.7717
X5.6585Y-2.4803
X5.7585Y-1.7717
X5.7585Y-2.4803
T6
X4.1524Y-5.2224
X4.1524Y-5.8224
X4.2524Y-5.2224
X4.2524Y-5.8224
X4.3524Y-5.2224
X4.3524Y-5.8224
X4.4524Y-5.2224
X4.4524Y-5.8224
X4.5524Y-5.2224
X4.5524Y-5.8224
X4.6524Y-5.2224
X4.6524Y-5.8224
X4.7524Y-5.2224
X4.7524Y-5.8224
X4.8524Y-5.2224
X4.8524Y-5.8224
X4.9524Y-5.2224
X4.9524Y-5.8224
X5.0524Y-5.2224
X5.0524Y-5.8224
X5.1524Y-5.2224
X5.1524Y-5.8224
X5.2524Y-5.2224
X5.2524Y-5.8224
X5.3524Y-5.2224
X5.3524Y-5.8224
X5.4524Y-5.2224
X5.4524Y-5.8224
X6.4209Y-3.2881
X6.4209Y-3.9281
X6.6177Y-3.2881
X6.6177Y-3.9281
X6.8713Y-3.9281
X6.9113Y-3.2881
X7.0681Y-3.9281
X7.1081Y-3.2881
T7
X2.4213Y-3.4843
X2.4213Y-3.622
X2.4213Y-3.7598
X2.4213Y-4.1142
X2.4213Y-4.252
X2.4213Y-4.3898
X2.4213Y-4.7441
X2.4213Y-4.8819
X2.4213Y-5.0197
X2.4213Y-5.374
X2.4213Y-5.5118
X2.4213Y-5.6496
T8
X2.3087Y-1.15
X2.3087Y-2.9
X2.3087Y-5.95
X5.7087Y-1.15
X5.7087Y-5.95
X9.1087Y-1.15
X9.1087Y-2.9
X9.1087Y-5.95
T0
M30
